<svg id="Layer_1" enable-background="new 0 0 256 256" height="512" viewBox="0 0 256 256" width="512" xmlns="http://www.w3.org/2000/svg"><g><g><g><g><g><path d="m199.31 192.69v29.7c0 5.53-4.48 10-10 10h-122.62c-5.52 0-10-4.47-10-10v-29.7c0-22.09 17.91-40 40-40h62.62c22.09 0 40 17.91 40 40z" fill="#ffa91a"/></g><g><path d="m166.474 153.334c7.893 7.307 12.834 17.756 12.834 29.359v29.7c0 5.523-4.477 10-10 10h-112.616c0 5.523 4.477 10 10 10h122.616c5.523 0 10-4.477 10-10v-29.7c0-19.645-14.162-35.982-32.834-39.359z" fill="#ef7816"/></g><g><g><path d="m159.31 152.69h-6.749v79.7h11.126v-79.462c-1.437-.157-2.898-.238-4.377-.238z" fill="#ffc91d"/></g></g><g><path d="m152.561 222.393h11.126v9.997h-11.126z" fill="#ffa91a"/></g><g><path d="m96.69 152.69c-1.479 0-2.94.081-4.377.238v79.462h11.126v-79.7z" fill="#ffc91d"/></g><g><path d="m92.313 222.393h11.126v9.997h-11.126z" fill="#ffa91a"/></g><g><g><path d="m88.441 153.543c-18.133 3.802-31.751 19.885-31.751 39.148v29.7c0 5.53 4.48 10 10 10h21.751z" fill="#377de2"/></g></g><g><path d="m62.69 196c-1.1 0-2-.891-2-1.99 0-1.11.9-2 2-2s2 .89 2 2c0 1.099-.9 1.99-2 1.99zm.66-7.95c-.13 0-.27-.02-.39-.04-.53-.11-.98-.41-1.27-.85-.3-.45-.41-.98-.3-1.511 2.26-11.239 9.82-20.83 20.21-25.649.98-.45 2.21.01 2.65.979.47.99.03 2.181-.97 2.65-9.24 4.29-15.96 12.81-17.97 22.81-.19.931-1.01 1.611-1.96 1.611z" fill="#5e9cf7"/></g><g><path d="m88.441 222.393h-31.749c0 3.152 1.458 5.962 3.736 7.795 1.714 1.378 3.892 2.202 6.262 2.202h21.751z" fill="#2266d3"/></g><g><path d="m167.559 153.543v78.848h21.751c5.52 0 10-4.47 10-10v-29.7c0-19.263-13.618-35.346-31.751-39.148z" fill="#377de2"/></g><g><path d="m167.559 153.546v.83c7.258 7.241 11.749 17.254 11.749 28.316v29.7c0 5.523-4.477 10-10 10h-1.749v9.997h21.751c2.345 0 4.502-.807 6.208-2.159 2.309-1.832 3.79-4.662 3.79-7.838v-29.7c0-19.261-13.616-35.343-31.749-39.146z" fill="#2266d3"/></g></g><g><g><path d="m116.508 131.255v28.443c0 2.2.632 4.355 1.82 6.207 4.522 7.048 14.823 7.048 19.345 0 1.188-1.852 1.82-4.006 1.82-6.207v-28.442h-22.985z" fill="#fcc4ae"/></g><g><g><path d="m116.508 140.148c3.612 1.208 7.473 1.872 11.492 1.872 4.019 0 7.881-.664 11.493-1.873v-8.893h-22.985z" fill="#f2ad97"/></g><g><path d="m127.999 137.02c-20.004 0-36.219-16.216-36.219-36.219v-18.801c0-20.003 16.216-36.219 36.219-36.219 20.003 0 36.219 16.216 36.219 36.219v18.801c.001 20.003-16.215 36.219-36.219 36.219z" fill="#ffd2c0"/></g><g><path d="m91.78 82v9.666c14.114-9.422 23.143-25.497 23.087-43.122 0-.103-.001-.205-.002-.308-13.51 5.259-23.085 18.393-23.085 33.764z" fill="#f2ad97"/></g><g><path d="m150.988 54.011c5.142 6.254 8.231 14.26 8.231 22.988v18.801c0 20.003-16.216 36.219-36.219 36.219-8.728 0-16.735-3.089-22.988-8.231 6.643 8.078 16.713 13.231 27.988 13.231 20.003 0 36.219-16.216 36.219-36.219v-18.8c0-11.275-5.153-21.346-13.231-27.989z" fill="#fcc4ae"/></g><g><path d="m91.781 100.801v-11.319c-6.443 0-11.667 5.223-11.667 11.667 0 6.443 5.223 11.667 11.667 11.667.679 0 1.341-.07 1.988-.181-1.282-3.71-1.988-7.689-1.988-11.834z" fill="#ffd2c0"/></g><g><path d="m164.219 89.482v11.319c0 4.145-.706 8.124-1.988 11.833.647.111 1.309.181 1.988.181 6.443 0 11.667-5.223 11.667-11.667 0-6.443-5.224-11.666-11.667-11.666z" fill="#ffd2c0"/></g><g><path d="m171.408 91.96c1.552 1.981 2.478 4.477 2.478 7.189 0 6.245-4.907 11.343-11.075 11.652-.178.618-.371 1.229-.58 1.833.647.111 1.309.182 1.988.182 6.443 0 11.667-5.223 11.667-11.667 0-3.732-1.752-7.054-4.478-9.189z" fill="#fcc4ae"/></g><g><path d="m114.867 38.544c.061 19.232-10.695 36.619-27.07 45.529-3.464 1.885-7.717-.828-7.37-4.757 1.177-13.345 7.108-25.559 16.431-34.162 5.037-4.665 11.062-8.262 17.86-10.424.096 1.26.149 2.528.149 3.814z" fill="#7c3108"/></g><g><path d="m172.631 80.9c-30.362 15.674-68.533-2.216-75.774-35.746 5.009-4.639 10.994-8.222 17.746-10.387 28.227-9.163 56.357 12.318 60.643 41.029.309 2.075-.751 4.142-2.615 5.104z" fill="#8c3f0a"/></g><g><path d="m175.245 75.796c-4.286-28.71-32.416-50.192-60.643-41.029-6.752 2.165-12.737 5.748-17.746 10.387.186.863.394 1.716.62 2.558 2.265-1.161 4.643-2.149 7.125-2.945 27.671-8.983 55.249 11.484 60.362 39.341 2.594-.847 5.157-1.913 7.666-3.208 1.866-.962 2.926-3.029 2.616-5.104z" fill="#7c3108"/></g><g><path d="m175.245 75.796c-4.286-28.71-32.416-50.192-60.643-41.029-6.752 2.165-12.737 5.748-17.746 10.387.06.276.121.551.185.825 3.795-2.642 8.003-4.75 12.561-6.212 28.227-9.163 56.357 12.318 60.643 41.029.063.42.068.839.024 1.249.792-.36 1.58-.741 2.362-1.145 1.864-.962 2.924-3.029 2.614-5.104z" fill="#6d2e03"/></g><g><g><circle cx="110.979" cy="96.056" fill="#995222" r="4.388"/></g><g><circle cx="145.021" cy="96.056" fill="#995222" r="4.388"/></g></g><g><g><path d="m91.781 100.801v-6.356c-3.703 0-6.704 3.002-6.704 6.704s3.002 6.704 6.704 6.704c.236 0 .458-.046.688-.069-.442-2.261-.688-4.593-.688-6.983z" fill="#f2ad97"/></g><g><path d="m164.225 100.801v-6.356c3.702 0 6.704 3.002 6.704 6.704s-3.002 6.704-6.704 6.704c-.236 0-.458-.046-.688-.069.442-2.261.688-4.593.688-6.983z" fill="#f2ad97"/></g></g></g><g><path d="m148.98 82.64c-7.46 0-14.66-1.63-21.41-4.85-6.49-3.09-12.32-7.63-16.88-13.13-.7-.851-.58-2.12.27-2.82.81-.68 2.13-.55 2.81.26 8.71 10.51 21.54 16.54 35.21 16.54 2.59 0 5.17-.22 7.67-.67h.02c1.07-.189 2.11.55 2.3 1.62.09.53-.02 1.06-.33 1.5-.3.43-.76.729-1.29.82-2.73.489-5.55.73-8.37.73zm-41.3-23.83c-.71 0-1.38-.38-1.74-1-.54-.96-.21-2.189.75-2.729.93-.53 2.2-.181 2.73.739.26.461.33 1 .19 1.521-.14.51-.47.94-.93 1.21-.31.169-.65.259-1 .259z" fill="#995222"/></g></g><g><path d="m121.56 122.408c-.996 0-1.751-.93-1.521-1.9.857-3.603 4.096-6.283 7.961-6.283s7.104 2.68 7.961 6.283c.23.969-.524 1.9-1.521 1.9z" fill="#e59076"/></g><g><g><g><path d="m153.85 152.69-14.321-6.46v6.211l-11.529 17.967-11.529-17.967v-6.211l-14.312 6.46 17.07 46.332c3.004 8.155 14.538 8.156 17.544.001z" fill="#2266d3"/></g><g><path d="m102.16 152.69 10.793 29.276c.439 1.191 1.964 1.525 2.862.628l12.185-12.186-11.529-17.967v-6.21z" fill="#377de2"/></g><g><path d="m153.85 152.69-10.802 29.276c-.439 1.191-1.964 1.525-2.862.628l-12.186-12.186 11.529-17.967v-6.21z" fill="#377de2"/></g></g></g></g></g><g><path d="m127.695 232.393h-61.005c-5.523 0-10-4.477-10-10v-23.552h71.005c2.761 0 5 2.239 5 5v23.552c0 2.762-2.239 5-5 5z" fill="#e6e7e8"/></g><g><path d="m132.695 225.081 12.973 7.309h13.019c2.761 0 5-2.239 5-5v-20.46c0-2.761-2.239-5-5-5h-25.992z" fill="#fcc4ae"/></g><g><path d="m127.695 198.842c1.434 0 2.727.604 3.638 1.571l39.617-46.001c-3.683-1.119-7.591-1.721-11.64-1.721h-5.459l-39.739 46.151z" fill="#f1f2f2"/></g><g><path d="m83.331 198.842h-14.272l-12.369 22.21v1.341c0 4.86 3.467 8.909 8.061 9.812z" fill="#d1d3d4"/></g><g><path d="m79.401 232.393h14.272l18.685-33.551h-14.273z" fill="#d1d3d4"/></g><g><path d="m127.695 198.842h-.583l-18.685 33.552h14.273l9.995-17.947v-10.604c0-2.763-2.239-5.001-5-5.001z" fill="#d1d3d4"/></g><g><g><path d="m175.446 74.957h-94.892v-3.277c0-26.204 21.242-47.446 47.446-47.446 26.204 0 47.446 21.242 47.446 47.446z" fill="#ffa91a"/></g><g><path d="m156.173 33.507c5.825 7.879 9.273 17.622 9.273 28.173v3.277h-84.41c-.312 2.197-.483 4.44-.483 6.723v3.277h94.893v-3.277c0-15.653-7.583-29.531-19.273-38.173z" fill="#f79219"/></g><g><path d="m158.947 35.732c7.16 8.309 11.499 19.118 11.499 30.948v3.277h-89.849c-.021.573-.044 1.145-.044 1.723v3.277h94.893v-3.277c0-14.375-6.401-27.247-16.499-35.948z" fill="#ef7816"/></g><g><path d="m177.78 89.482h-99.56c-2.209 0-4-1.791-4-4v-6.525c0-2.209 1.791-4 4-4h99.559c2.209 0 4 1.791 4 4v6.525c.001 2.209-1.79 4-3.999 4z" fill="#f79219"/></g><g><path d="m177.78 74.957h-1v5.525c0 2.209-1.791 4-4 4h-98.56v1c0 2.209 1.791 4 4 4h99.559c2.209 0 4-1.791 4-4v-6.525c.001-2.209-1.79-4-3.999-4z" fill="#ef7816"/></g><g><path d="m115.735 56.353v-36.308c0-1.812 1.469-3.282 3.282-3.282h17.966c1.812 0 3.282 1.469 3.282 3.282v36.308c0 1.812-1.469 3.282-3.282 3.282h-17.966c-1.813 0-3.282-1.47-3.282-3.282z" fill="#f79219"/></g><g><path d="m136.983 16.764h-1.718v34.589c0 1.813-1.469 3.282-3.282 3.282h-16.248v1.718c0 1.813 1.469 3.282 3.282 3.282h17.966c1.812 0 3.282-1.469 3.282-3.282v-36.308c0-1.812-1.469-3.281-3.282-3.281z" fill="#ef7816"/></g><g><g><path d="m90.172 74.957v-11.869c0-1.003.813-1.816 1.816-1.816h10.893c1.003 0 1.816.813 1.816 1.816v11.869z" fill="#f79219"/></g><g><path d="m102.881 61.272h-3.184v8.685h-9.525v5h14.525v-11.869c.001-1.003-.813-1.816-1.816-1.816z" fill="#ef7816"/></g><g><path d="m151.598 74.957v-11.869c0-1.003.813-1.816 1.816-1.816h10.893c1.003 0 1.816.813 1.816 1.816v11.869z" fill="#f79219"/></g><g><path d="m164.307 61.272h-3.184v8.685h-9.525v5h14.525v-11.869c.001-1.003-.813-1.816-1.816-1.816z" fill="#ef7816"/></g></g></g></g></svg>