<svg id="Capa_1" enable-background="new 0 0 512 512" height="512" viewBox="0 0 512 512" width="512" xmlns="http://www.w3.org/2000/svg"><g><g><g><g fill="#fca863"><path d="m46.31 451.37c15.68 15.68 32.15 30.33 48.03 42.74-27.1 5.26-55.11 4.72-82.03-1.6-3.53-.83-6.3-3.6-7.13-7.13-6.32-26.92-6.86-54.93-1.6-82.03 12.41 15.88 27.05 32.34 42.73 48.02z"/><path d="m193.25 304.44c18.8 18.8 35.91 38.56 49.55 57.14-9.1 28.92-25.11 56.14-48.04 79.06-22.87 22.88-50.02 38.87-78.87 47.99-18.58-13.53-38.43-30.66-57.3-49.53-18.86-18.86-35.99-38.71-49.53-57.3 9.12-28.85 25.11-56 47.99-78.87 22.92-22.92 50.13-38.94 79.05-48.04 18.59 13.65 38.35 30.75 57.15 49.55z"/><path d="m248.34 339.63c-12.44-15.81-27.02-32.14-42.58-47.7s-31.89-30.14-47.7-42.58c26.92-5.13 54.71-4.56 81.43 1.72 3.53.83 6.3 3.6 7.13 7.13 6.28 26.72 6.85 54.51 1.72 81.43z"/></g><path d="m194.766 440.643c-49.499 49.499-118.99 66.782-182.458 51.869-3.531-.829-6.302-3.599-7.13-7.13-1.297-5.535-2.356-11.117-3.158-16.74 59.692 13.528 124.81-2.968 171.294-49.451 46.47-46.47 62.965-111.588 49.438-171.281 5.623.801 11.205 1.861 16.74 3.158 3.531.829 6.302 3.599 7.13 7.13 14.912 63.469-2.371 132.96-51.856 182.445z" fill="#fc9744"/><g><g><g><path d="m249.901 330.121c-10.798-14.397-23.89-29.391-38.416-43.917s-29.52-27.619-43.917-38.416c-14.811 2.071-29.432 5.854-43.53 11.354 2.526 1.426 5.263 3.076 8.217 4.971 17.249 11.056 36.943 27.34 55.461 45.859s34.81 38.219 45.859 55.461c1.901 2.961 3.552 5.711 4.984 8.231 5.489-14.111 9.271-28.732 11.342-43.543z" fill="#f2eff2"/></g><g><g><path d="m249.901 330.121c-6.838-9.12-14.6-18.485-23.076-27.816-1.039 14.336-3.749 28.563-8.142 42.369 5.623 7.144 10.641 14.132 14.893 20.76 1.901 2.961 3.552 5.711 4.984 8.231 5.488-14.112 9.27-28.733 11.341-43.544z" fill="#e1dde1"/></g></g><g><path d="m119.543 479.467c-17.242-11.049-36.943-27.34-55.461-45.859-18.519-18.519-34.803-38.213-45.859-55.461-1.895-2.954-3.545-5.691-4.971-8.217-5.494 14.105-9.283 28.719-11.354 43.53 10.798 14.397 23.89 29.391 38.416 43.917s29.52 27.619 43.917 38.416c14.811-2.071 29.432-5.854 43.543-11.341-2.52-1.433-5.27-3.083-8.231-4.985z" fill="#f2eff2"/></g><g><g><path d="m119.543 479.467c-6.628-4.251-13.616-9.27-20.76-14.893-13.813 4.387-28.04 7.097-42.369 8.142 9.331 8.475 18.695 16.237 27.816 23.076 14.811-2.071 29.432-5.854 43.543-11.341-2.519-1.432-5.269-3.082-8.23-4.984z" fill="#e1dde1"/></g></g></g></g></g><g><path d="m93.823 411.528c-1.96 0-3.921-.748-5.416-2.243-2.992-2.992-2.992-7.841 0-10.834l64.154-64.155c2.991-2.99 7.841-2.99 10.833 0 2.992 2.992 2.992 7.841 0 10.834l-64.154 64.155c-1.496 1.495-3.457 2.243-5.417 2.243z" fill="#f2671f"/><g fill="#f2eff2"><path d="m159.488 373.446c-2.231 0-4.442-.969-5.956-2.838-3.27-4.037-7.756-8.945-12.63-13.819-4.871-4.871-9.779-9.356-13.819-12.631-3.287-2.663-3.793-7.486-1.129-10.774 2.663-3.287 7.486-3.794 10.774-1.129 4.442 3.599 9.771 8.465 15.007 13.7 5.24 5.24 10.106 10.57 13.702 15.008 2.663 3.287 2.157 8.111-1.13 10.774-1.419 1.151-3.124 1.709-4.819 1.709z"/><path d="m139.382 393.552c-2.231 0-4.442-.969-5.956-2.838-3.272-4.039-7.758-8.947-12.63-13.819-4.876-4.877-9.784-9.362-13.819-12.632-3.287-2.663-3.793-7.486-1.13-10.774 2.664-3.287 7.486-3.794 10.774-1.129 4.436 3.594 9.766 8.46 15.008 13.701 5.238 5.237 10.104 10.567 13.702 15.008 2.663 3.287 2.157 8.111-1.13 10.774-1.42 1.151-3.125 1.709-4.819 1.709z"/><path d="m119.276 413.658c-2.231 0-4.442-.969-5.955-2.838-3.272-4.037-7.758-8.945-12.631-13.818-4.872-4.873-9.779-9.358-13.819-12.632-3.287-2.663-3.793-7.486-1.13-10.774 2.664-3.287 7.486-3.794 10.774-1.129 4.441 3.599 9.771 8.465 15.008 13.702 5.238 5.237 10.104 10.566 13.7 15.006 2.664 3.286 2.158 8.11-1.128 10.774-1.419 1.149-3.125 1.709-4.819 1.709z"/></g></g></g><g><g><ellipse cx="303.79" cy="164.099" fill="#cbe5e7" rx="125.826" ry="149.847" transform="matrix(.866 -.5 .5 .866 -41.349 173.88)"/><path d="m412.757 101.182c41.384 71.68 26.136 157.947-34.043 192.692-8.354 4.823-17.127 8.399-26.173 10.793 57.548-34.401 71.858-117.749 31.823-187.092-40.023-69.322-119.333-98.605-177.897-66.01 6.592-6.621 14.065-12.425 22.398-17.237 60.18-34.745 142.514-4.816 183.892 66.854z" fill="#a9d3d8"/><path d="m433.128 241.206c17.192-42.504 13.689-96.349-13.735-143.851-20.912-36.221-52.488-63.462-88.911-76.705-36.897-13.414-74.345-10.912-105.445 7.043-63.743 36.803-80.273 127.935-36.848 203.148 27.417 47.489 72.278 77.434 117.67 83.809 32.603 10.319 62.087 29.042 85.298 54.196 1.51 1.637 3.567 2.466 5.631 2.466 1.858 0 3.72-.671 5.193-2.031 3.109-2.868 3.303-7.715.434-10.824-16.647-18.04-36.302-32.983-57.937-44.255 13.22-2.264 26.061-6.767 38.066-13.698 11.989-6.921 22.306-15.766 30.869-26.064-1.042 24.355 2.088 48.831 9.383 72.249 1.022 3.28 4.047 5.384 7.311 5.384.755 0 1.522-.113 2.281-.348 4.039-1.259 6.293-5.552 5.035-9.592-10.175-32.663-11.649-67.543-4.295-100.927zm-58.244 46.031c-15.791 9.117-33.25 13.432-51.074 13.431-45.868-.002-94.124-28.588-122.355-77.486-39.201-67.899-25.186-149.643 31.241-182.221 15.531-8.966 32.945-13.485 51.115-13.485 13.55 0 27.522 2.514 41.435 7.573 33.042 12.014 61.766 36.861 80.879 69.967 39.201 67.899 25.186 149.643-31.241 182.221z" fill="#5169cd"/><g><g><path d="m505.097 483.387-25.449 14.693c-6.357 3.67-14.485 1.492-18.155-4.865l-68.833-119.221c-2.202-3.814-.895-8.691 2.919-10.893l34.657-20.009c3.814-2.202 8.691-.895 10.893 2.919l68.833 119.222c3.669 6.356 1.492 14.484-4.865 18.154z" fill="#27d1b3"/></g><g><path d="m440.69 345.26 69.992 121.229c3.273 5.668.24 13.529-6.785 17.584l-22.751 13.135c7.012-4.048 10.058-11.916 6.785-17.584l-69.992-121.229c-1.965-3.403-6.968-4.177-11.173-1.75l22.751-13.135c4.218-2.435 9.208-1.653 11.173 1.75z" fill="#20b69f"/></g><g><path d="m409.92 381.047h55.959v30.679h-55.959z" fill="#fddd45" transform="matrix(.866 -.5 .5 .866 -139.526 272.056)"/><g><path d="m437.62 373.625h26.271v30.679h-26.271z" fill="#f8c52d" transform="matrix(.866 -.5 .5 .866 -134.092 277.489)"/></g></g></g></g><g><g fill="#27d1b3"><path d="m269.052 268.897c-2.647 0-5.222-1.373-6.641-3.831l-62.866-108.888c-2.115-3.663-.86-8.348 2.804-10.464 3.663-2.114 8.348-.861 10.464 2.804l62.866 108.888c2.115 3.663.86 8.348-2.804 10.464-1.206.696-2.523 1.027-3.823 1.027z"/><path d="m316.105 287.469c-2.647 0-5.222-1.373-6.641-3.831l-105.743-183.155c-2.115-3.663-.86-8.348 2.804-10.464 3.663-2.113 8.349-.861 10.464 2.804l105.744 183.155c2.115 3.663.86 8.348-2.804 10.464-1.207.695-2.524 1.027-3.824 1.027z"/><path d="m348.707 281.01c-2.647 0-5.222-1.373-6.641-3.831l-117.394-203.333c-2.115-3.663-.86-8.348 2.804-10.464 3.664-2.114 8.348-.861 10.464 2.804l117.394 203.334c2.115 3.663.86 8.348-2.804 10.464-1.206.695-2.523 1.026-3.823 1.026z"/><path d="m375.956 265.279c-2.647 0-5.222-1.373-6.641-3.831l-117.395-203.334c-2.115-3.663-.86-8.348 2.804-10.464 3.664-2.114 8.348-.861 10.464 2.804l117.395 203.334c2.115 3.663.86 8.348-2.804 10.464-1.207.696-2.524 1.027-3.823 1.027z"/><path d="m397.849 240.273c-2.647 0-5.222-1.373-6.641-3.831l-105.744-183.154c-2.115-3.663-.86-8.348 2.804-10.464 3.663-2.114 8.348-.861 10.464 2.804l105.744 183.154c2.115 3.663.86 8.348-2.804 10.464-1.206.696-2.523 1.027-3.823 1.027z"/><path d="m401.082 182.947c-2.647 0-5.222-1.373-6.641-3.831l-58.655-101.596c-2.115-3.663-.86-8.348 2.804-10.464 3.664-2.114 8.348-.861 10.464 2.804l58.656 101.596c2.115 3.663.86 8.348-2.804 10.464-1.207.695-2.524 1.027-3.824 1.027z"/></g><g fill="#20b69f"><path d="m212.866 134.143c-2.647 0-5.222-1.373-6.641-3.831-2.115-3.663-.86-8.348 2.804-10.464l103.82-59.94c3.663-2.113 8.348-.861 10.464 2.804 2.115 3.663.86 8.348-2.804 10.464l-103.82 59.94c-1.206.696-2.523 1.027-3.823 1.027z"/><path d="m201.982 176.759c-2.647 0-5.222-1.373-6.641-3.831-2.115-3.663-.86-8.348 2.804-10.464l157.051-90.674c3.663-2.113 8.348-.861 10.464 2.804 2.115 3.663.86 8.348-2.804 10.464l-157.051 90.674c-1.206.696-2.523 1.027-3.823 1.027z"/><path d="m211.703 207.477c-2.647 0-5.222-1.373-6.641-3.831-2.115-3.663-.86-8.348 2.804-10.464l169.074-97.615c3.663-2.114 8.349-.861 10.464 2.804 2.115 3.663.86 8.348-2.804 10.464l-169.074 97.615c-1.207.696-2.524 1.027-3.823 1.027z"/><path d="m227.434 234.725c-2.647 0-5.222-1.373-6.641-3.831-2.115-3.663-.86-8.348 2.804-10.464l169.074-97.614c3.664-2.113 8.348-.861 10.464 2.804 2.115 3.663.86 8.348-2.804 10.464l-169.074 97.614c-1.206.696-2.524 1.027-3.823 1.027z"/><path d="m249.177 258.503c-2.647 0-5.222-1.373-6.641-3.831-2.115-3.663-.86-8.348 2.804-10.464l157.051-90.673c3.663-2.114 8.348-.861 10.464 2.804 2.115 3.663.86 8.348-2.804 10.464l-157.051 90.672c-1.206.696-2.524 1.028-3.823 1.028z"/><path d="m303.797 263.298c-2.647 0-5.222-1.373-6.641-3.831-2.115-3.663-.86-8.348 2.804-10.464l91.547-52.854c3.664-2.113 8.348-.861 10.464 2.804 2.115 3.663.86 8.348-2.804 10.464l-91.547 52.854c-1.206.696-2.523 1.027-3.823 1.027z"/></g></g></g><g><g><g><circle cx="295.632" cy="380.448" fill="#fb7722" r="117.245"/><path d="m412.877 380.443c0 64.759-52.498 117.246-117.246 117.246-9.726 0-19.169-1.188-28.197-3.418 58.807-4.63 105.083-53.833 105.083-113.828s-46.276-109.186-105.083-113.816c9.027-2.229 18.471-3.417 28.197-3.417 64.748 0 117.246 52.486 117.246 117.233z" fill="#f2671f"/></g><path d="m404.106 408.497c1.113-.572 3.289-1.317 5.862-1.992l-6.067 19.007c-11.388 5.004-34.296 13.716-55.744 13.716-13.808 0-27.004-3.626-36.155-14.176-9.886 1.757-20.079 2.676-30.446 2.676-4.933 0-9.825-.214-14.656-.613 10.203 46.031 33.121 64.292 33.387 64.497 1.205.929 4.218 3.013 7.466 5.464-3.983.398-8.028.613-12.123.613-3.942 0-7.834-.194-11.674-.572-9.376-10.213-25.594-32.733-33.152-72.105-11.255-2.022-22.081-5.158-32.284-9.304-3.707 11.367-10.663 20.815-20.774 28.137-.102.072-.286.184-.551.327l-7.507-13.441c7.384-5.617 12.338-12.858 14.809-21.591-9.304-4.964-17.904-10.867-25.594-17.618-.347-3.646-.521-7.333-.521-11.071 0-3.401.143-6.771.429-10.101 2.267 2.073 4.116 3.902 4.994 4.78 6.69 6.7 14.35 12.593 22.745 17.597.02-25.574-14.104-43.968-21.366-51.699 1.808-5.076 3.953-9.989 6.424-14.717h.01c.858.5 1.542.991 1.992 1.43 7.68 7.456 31.426 33.939 27.913 72.626 8.457 3.656 17.454 6.526 26.83 8.548-5.73-49.422 5.474-87.354 16.035-110.64 7.507-16.556 15.677-28.188 20.774-34.602 3.452-.317 6.935-.47 10.469-.47 3.564 0 7.088.163 10.56.48-2.38 2.288-4.31 4.085-5.076 4.872-.235.245-12.46 13.042-23.072 36.696-9.794 21.856-20.202 57.786-14.125 104.828.061.47.133.919.204 1.389 5.719.623 11.541.94 17.434.94 7.599 0 15.075-.562 22.367-1.624-2.318-7.078-2.645-14.707-.929-22.775 8.722-41.047 69.123-82.114 77.978-87.946 3.534 3.738 6.812 7.711 9.825 11.888-.204.133-.388.255-.562.368-.255.163-16.637 10.755-33.775 26.013-21.989 19.579-35.297 37.861-38.483 52.864-1.287 6.087-.909 11.561 1.164 16.596 38.422-9.621 69.593-33.571 81.216-64.711.429-1.236 1.593-4.943 3.044-8.875 3.217 7.466 5.668 15.33 7.272 23.501-9.417 18.854-25.359 35.593-45.755 47.828-10.54 6.332-21.958 11.357-34 15.013 24.635 12.093 72.637-11.776 73.188-12.051z" fill="#554e55"/></g></g></g><g fill="#433f43"><path d="m297.26 273.08c-5.11-1.86-10.4-3.36-15.82-4.47 1.36-1.89 2.61-3.54 3.72-4.94 3.46-.31 6.94-.47 10.47-.47 3.57 0 7.09.17 10.56.48-2.38 2.29-4.31 4.09-5.07 4.88-.08.08-1.54 1.61-3.86 4.52z"/><path d="m300.29 491.61c1.2.93 4.22 3.01 7.47 5.47-3.99.39-8.03.61-12.13.61-3.94 0-7.83-.2-11.67-.57-1.2-1.31-2.52-2.82-3.92-4.55 5.67-1.09 11.18-2.6 16.52-4.49 2.25 2.35 3.67 3.48 3.73 3.53z"/><path d="m362.34 333.25c-2.17-4.78-4.66-9.38-7.44-13.77 12.29-10.16 22.76-17.24 26.07-19.42 3.54 3.74 6.82 7.71 9.83 11.89-.21.13-.39.26-.56.37-.23.14-13.07 8.44-27.9 20.93z"/><path d="m400.36 343.08c.43-1.23 1.59-4.94 3.04-8.87 3.22 7.46 5.67 15.33 7.27 23.5-8.54 17.1-22.46 32.47-40.19 44.31 1.29-6.72 1.99-13.65 2.03-20.73 12.72-10.68 22.42-23.66 27.85-38.21z"/><path d="m404.11 408.5c1.11-.57 3.29-1.32 5.86-1.99l-6.07 19c-9.92 4.36-28.58 11.54-47.41 13.31 3.15-5.29 5.89-10.87 8.17-16.67 20.16-4.06 39.1-13.48 39.45-13.65z"/></g></svg>