<svg id="Capa_1" enable-background="new 0 0 512 512" height="512" viewBox="0 0 512 512" width="512" xmlns="http://www.w3.org/2000/svg"><g><g><g><g><g><path d="m78.277 202.483-70.325 66.834c-10.188 9.651-10.628 25.8-.979 36 4.785 5.055 11.527 7.955 18.498 7.955 6.532 0 12.748-2.475 17.506-6.974l66.744-63.196c3.359.87 6.88 1.333 10.508 1.333 14.005 0 26.421-6.905 34.045-17.483h140.436c7.61 7.701 18.168 12.483 29.824 12.483 23.132 0 41.951-18.819 41.951-41.952 0-.969-.045-1.927-.11-2.88l43.628-43.628c2.929-2.929 2.929-7.678 0-10.606-2.93-2.929-7.678-2.929-10.607 0l-37.695 37.695c-3.301-6.292-8.148-11.648-14.039-15.557l98.451-98.452h14.955v14.643l-36.892 36.902c-2.929 2.93-2.928 7.678.001 10.607 1.465 1.464 3.384 2.196 5.303 2.196 1.92 0 3.84-.732 5.304-2.197l28.479-28.487c3.969 8.911 12.903 15.141 23.271 15.141 14.042 0 25.466-11.424 25.466-25.465v-48.806c0-14.042-11.424-25.466-25.466-25.466h-48.805c-14.041 0-25.465 11.424-25.465 25.466 0 10.284 6.131 19.158 14.927 23.174l-94.56 94.56c-2.622-.515-5.328-.792-8.098-.792-15.294 0-28.698 8.23-36.029 20.491h-135.751c-7.699-9.445-19.417-15.491-32.524-15.491-23.133 0-41.952 18.82-41.952 41.952zm-45.61 92.919c-1.958 1.851-4.514 2.87-7.197 2.87-2.91 0-5.61-1.16-7.602-3.264-3.968-4.195-3.789-10.834.397-14.8l63.78-60.38c2.962 6.495 7.525 12.111 13.193 16.329zm87.562-65.967c-14.861 0-26.952-12.09-26.952-26.952s12.09-26.952 26.952-26.952 26.952 12.091 26.952 26.952-12.091 26.952-26.952 26.952zm40.861-17.483c.706-3.045 1.091-6.212 1.091-9.469 0-3.974-.567-7.816-1.605-11.461h122.505c-.327 2.107-.499 4.264-.499 6.461 0 5.083.91 9.956 2.573 14.469zm163.444 12.483c-14.861 0-26.952-12.09-26.952-26.952s12.091-26.952 26.952-26.952 26.951 12.091 26.951 26.952-12.089 26.952-26.951 26.952zm172.466-137.042c0 5.771-4.695 10.465-10.466 10.465s-10.466-4.695-10.466-10.465v-30.839c0-4.142-3.357-7.5-7.5-7.5h-30.839c-5.771 0-10.465-4.695-10.465-10.466s4.694-10.466 10.465-10.466h48.805c5.771 0 10.466 4.695 10.466 10.466z"/><path d="m98.604 336.613h-81.921c-9.199 0-16.683 7.484-16.683 16.683v18.448c0 3.392 1.023 6.548 2.77 9.184-1.747 2.637-2.77 5.792-2.77 9.185v18.447c0 3.393 1.024 6.548 2.77 9.185-1.746 2.636-2.77 5.792-2.77 9.184v18.448c0 3.393 1.024 6.548 2.77 9.185-1.746 2.636-2.77 5.792-2.77 9.184v18.448c0 9.199 7.484 16.683 16.683 16.683h81.921c9.199 0 16.683-7.484 16.683-16.683v-18.448c0-3.393-1.024-6.548-2.77-9.185 1.746-2.637 2.77-5.792 2.77-9.185v-18.448c0-3.393-1.024-6.548-2.77-9.185 1.746-2.637 2.77-5.792 2.77-9.185v-18.447c0-3.392-1.023-6.548-2.77-9.184 1.746-2.637 2.77-5.792 2.77-9.184v-18.448c0-9.198-7.484-16.682-16.683-16.682zm-83.604 16.683c0-.928.755-1.683 1.683-1.683h81.921c.928 0 1.683.755 1.683 1.683v18.448c0 .928-.755 1.683-1.683 1.683h-81.921c-.928 0-1.683-.755-1.683-1.683zm85.287 92.081c0 .928-.755 1.683-1.683 1.683h-81.921c-.928 0-1.683-.755-1.683-1.683v-18.448c0-.928.755-1.683 1.683-1.683.023 0 .045-.003.068-.003h81.785c.023 0 .045.003.068.003.928 0 1.683.755 1.683 1.683zm0-36.817c0 .928-.755 1.683-1.683 1.683h-81.921c-.928 0-1.683-.755-1.683-1.683v-18.447c0-.928.755-1.683 1.683-1.683.016 0 .032-.002.048-.002h81.824c.016 0 .032.002.048.002.928 0 1.683.755 1.683 1.683v18.447zm0 73.634c0 .928-.755 1.683-1.683 1.683h-81.921c-.928 0-1.683-.755-1.683-1.683v-18.448c0-.928.755-1.683 1.683-1.683.02 0 .038-.003.058-.003h81.805c.02 0 .038.003.058.003.928 0 1.683.755 1.683 1.683z"/><path d="m230.841 262.976h-81.92c-9.199 0-16.684 7.484-16.684 16.683v18.448c0 3.393 1.024 6.548 2.77 9.185-1.747 2.637-2.77 5.792-2.77 9.185v18.447c0 3.393 1.024 6.549 2.771 9.186-1.747 2.637-2.771 5.793-2.771 9.185v18.448c0 3.393 1.024 6.548 2.77 9.185-1.746 2.637-2.77 5.792-2.77 9.185v18.447c0 3.393 1.024 6.548 2.77 9.185-1.746 2.637-2.77 5.792-2.77 9.185v18.448c0 3.392 1.023 6.548 2.77 9.184-1.747 2.637-2.77 5.792-2.77 9.185v18.448c0 9.199 7.484 16.683 16.684 16.683h81.92c9.199 0 16.684-7.484 16.684-16.683v-18.448c0-3.393-1.024-6.548-2.77-9.185 1.746-2.637 2.77-5.792 2.77-9.185v-18.448c0-3.393-1.024-6.548-2.77-9.185 1.747-2.637 2.77-5.792 2.77-9.185v-18.447c0-3.393-1.024-6.548-2.77-9.185 1.747-2.637 2.77-5.792 2.77-9.185v-18.448c0-3.393-1.024-6.549-2.771-9.185 1.747-2.637 2.771-5.793 2.771-9.186v-18.447c0-3.393-1.024-6.548-2.77-9.185 1.747-2.637 2.77-5.792 2.77-9.185v-18.448c-.001-9.198-7.485-16.682-16.684-16.682zm-83.604 16.683c0-.928.755-1.683 1.684-1.683h81.92c.928 0 1.684.755 1.684 1.683v18.448c0 .928-.755 1.683-1.684 1.683h-81.92c-.928 0-1.684-.755-1.684-1.683zm85.287 128.901c0 .928-.755 1.683-1.684 1.683h-33.115c-4.142 0-7.5 3.358-7.5 7.5s3.358 7.5 7.5 7.5h33.047c.023 0 .045.003.068.003.928 0 1.684.755 1.684 1.683v18.448c0 .928-.755 1.683-1.684 1.683h-81.92c-.928 0-1.683-.755-1.683-1.683v-18.448c0-.928.755-1.683 1.683-1.683.023 0 .045-.003.068-.003h13.697c4.142 0 7.5-3.358 7.5-7.5s-3.358-7.5-7.5-7.5h-13.765c-.928 0-1.683-.755-1.683-1.683v-18.447c0-.928.755-1.683 1.683-1.683.023 0 .045-.003.068-.003h81.785c.023 0 .045.003.068.003.928 0 1.684.755 1.684 1.683v18.447zm0-36.817c0 .928-.755 1.683-1.684 1.683h-81.92c-.928 0-1.684-.755-1.684-1.683v-18.448c0-.928.755-1.683 1.684-1.683.029 0 .058-.004.087-.004h81.746c.029 0 .058.004.087.004.928 0 1.684.755 1.684 1.683zm0-36.819c0 .928-.755 1.684-1.684 1.684h-81.92c-.928 0-1.684-.755-1.684-1.684v-18.447c0-.928.755-1.683 1.684-1.683.026 0 .051-.004.077-.004h81.766c.026 0 .051.004.077.004.928 0 1.684.755 1.684 1.683zm0 147.27c0 .928-.755 1.683-1.684 1.683h-81.92c-.928 0-1.684-.755-1.684-1.683v-18.448c0-.928.755-1.683 1.684-1.683.02 0 .038-.003.058-.003h81.804c.02 0 .038.003.058.003.928 0 1.684.755 1.684 1.683z"/><path d="m363.078 262.977h-81.921c-9.199 0-16.684 7.484-16.684 16.683v18.448c0 3.393 1.024 6.548 2.77 9.185-1.747 2.637-2.77 5.792-2.77 9.185v18.448c0 3.393 1.024 6.548 2.77 9.185-1.746 2.637-2.77 5.792-2.77 9.185v18.448c0 3.393 1.024 6.548 2.77 9.185-1.747 2.637-2.77 5.792-2.77 9.185v18.447c0 3.393 1.024 6.548 2.77 9.185-1.747 2.637-2.77 5.792-2.77 9.185v18.448c0 3.393 1.024 6.548 2.77 9.185-1.746 2.637-2.77 5.792-2.77 9.185v18.448c0 9.199 7.484 16.683 16.684 16.683h81.921c9.199 0 16.684-7.484 16.684-16.683v-18.448c0-3.393-1.024-6.548-2.77-9.185 1.746-2.637 2.77-5.792 2.77-9.185v-18.448c0-3.393-1.024-6.548-2.77-9.185 1.747-2.637 2.77-5.792 2.77-9.185v-18.447c0-3.393-1.024-6.548-2.77-9.185 1.747-2.637 2.77-5.792 2.77-9.185v-18.448c0-3.393-1.024-6.548-2.77-9.185 1.746-2.637 2.77-5.792 2.77-9.185v-18.448c0-3.393-1.024-6.548-2.77-9.185 1.747-2.637 2.77-5.792 2.77-9.185v-18.448c0-9.199-7.485-16.683-16.684-16.683zm-83.604 16.683c0-.928.755-1.683 1.684-1.683h81.921c.929 0 1.684.755 1.684 1.683v18.448c0 .928-.755 1.683-1.684 1.683h-81.921c-.929 0-1.684-.755-1.684-1.683zm85.288 165.717c0 .928-.755 1.683-1.684 1.683h-81.921c-.929 0-1.684-.755-1.684-1.683v-18.448c0-.928.755-1.683 1.684-1.683.023 0 .045-.003.068-.003h81.785c.023 0 .045.003.068.003.929 0 1.684.755 1.684 1.683zm0-36.817c0 .928-.755 1.683-1.684 1.683h-81.921c-.929 0-1.684-.755-1.684-1.683v-18.447c0-.928.755-1.683 1.684-1.683.023 0 .045-.003.068-.003h81.785c.023 0 .045.003.068.003.929 0 1.684.755 1.684 1.683zm0-36.817c0 .928-.755 1.683-1.684 1.683h-81.921c-.929 0-1.684-.755-1.684-1.683v-18.448c0-.928.755-1.683 1.684-1.683.02 0 .038-.003.058-.003h81.805c.02 0 .039.003.058.003.929 0 1.684.755 1.684 1.683zm0-36.817c0 .928-.755 1.683-1.684 1.683h-81.921c-.929 0-1.684-.755-1.684-1.683v-18.448c0-.928.755-1.683 1.684-1.683.026 0 .051-.004.077-.004h81.766c.026 0 .051.004.077.004.929 0 1.684.755 1.684 1.683v18.448zm0 147.268c0 .928-.755 1.683-1.684 1.683h-81.921c-.929 0-1.684-.755-1.684-1.683v-18.448c0-.928.755-1.683 1.684-1.683.02 0 .038-.003.058-.003h81.805c.02 0 .039.003.058.003.929 0 1.684.755 1.684 1.683z"/><path d="m495.315 189.346h-19.979c-4.143 0-7.5 3.358-7.5 7.5s3.357 7.5 7.5 7.5h19.979c.928 0 1.683.755 1.683 1.683v18.447c0 .928-.755 1.684-1.683 1.684h-81.921c-.929 0-1.684-.755-1.684-1.684v-18.447c0-.928.755-1.683 1.684-1.683h26.9c4.143 0 7.5-3.358 7.5-7.5s-3.357-7.5-7.5-7.5h-26.9c-9.199 0-16.684 7.484-16.684 16.683v18.447c0 3.393 1.024 6.548 2.77 9.185-1.747 2.637-2.77 5.792-2.77 9.185v18.448c0 3.392 1.023 6.547 2.77 9.184-1.746 2.636-2.77 5.792-2.77 9.184v18.447c0 3.393 1.024 6.548 2.77 9.185-1.747 2.637-2.77 5.792-2.77 9.185v18.448c0 3.393 1.024 6.548 2.77 9.185-1.746 2.637-2.77 5.792-2.77 9.185v18.448c0 3.393 1.024 6.548 2.77 9.185-1.747 2.637-2.77 5.792-2.77 9.185v18.447c0 3.393 1.024 6.548 2.77 9.185-1.747 2.637-2.77 5.792-2.77 9.185v18.448c0 3.393 1.024 6.548 2.77 9.185-1.746 2.637-2.77 5.792-2.77 9.185v18.448c0 9.199 7.484 16.683 16.684 16.683h81.921c9.199 0 16.683-7.484 16.683-16.683v-18.448c0-3.393-1.023-6.548-2.77-9.185 1.746-2.637 2.77-5.792 2.77-9.185v-18.448c0-3.393-1.023-6.548-2.77-9.185 1.746-2.637 2.77-5.792 2.77-9.185v-18.447c0-3.393-1.023-6.548-2.77-9.185 1.746-2.637 2.77-5.792 2.77-9.185v-18.448c0-3.393-1.023-6.548-2.77-9.185 1.746-2.637 2.77-5.792 2.77-9.185v-18.448c0-3.393-1.024-6.548-2.77-9.185 1.746-2.637 2.77-5.792 2.77-9.185v-18.447c0-3.392-1.023-6.547-2.769-9.184 1.746-2.636 2.769-5.792 2.769-9.184v-18.448c0-3.393-1.024-6.548-2.77-9.185 1.746-2.637 2.77-5.792 2.77-9.185v-18.447c0-9.199-7.483-16.683-16.683-16.683zm1.683 256.031c0 .928-.755 1.683-1.683 1.683h-81.921c-.929 0-1.684-.755-1.684-1.683v-18.448c0-.928.755-1.683 1.684-1.683.023 0 .045-.003.068-.003h81.785c.023 0 .045.003.068.003.928 0 1.683.755 1.683 1.683zm0-36.817c0 .928-.755 1.683-1.683 1.683h-81.921c-.929 0-1.684-.755-1.684-1.683v-18.447c0-.928.755-1.683 1.684-1.683.023 0 .045-.003.068-.003h81.785c.023 0 .045.003.068.003.928 0 1.683.755 1.683 1.683zm0-36.817c0 .928-.755 1.683-1.683 1.683h-81.921c-.929 0-1.684-.755-1.684-1.683v-18.448c0-.928.755-1.683 1.684-1.683.02 0 .038-.003.058-.003h81.805c.02 0 .039.003.058.003.928 0 1.683.755 1.683 1.683zm0-36.817c0 .928-.755 1.683-1.683 1.683h-81.921c-.929 0-1.684-.755-1.684-1.683v-18.448c0-.928.755-1.683 1.684-1.683.02 0 .038-.003.058-.003h81.805c.02 0 .039.003.058.003.928 0 1.683.755 1.683 1.683zm0-36.817c0 .928-.755 1.684-1.683 1.684h-81.921c-.929 0-1.684-.755-1.684-1.684v-18.447c0-.928.755-1.683 1.684-1.683.01 0 .019-.001.029-.001h81.863c.01 0 .019.001.029.001.928 0 1.683.755 1.683 1.683zm0-36.815c0 .928-.755 1.683-1.683 1.683h-81.921c-.929 0-1.684-.755-1.684-1.683v-18.448c0-.928.755-1.683 1.684-1.683.02 0 .038-.003.058-.003h81.805c.02 0 .039.003.058.003.928 0 1.683.755 1.683 1.683zm0 220.9c0 .928-.755 1.683-1.683 1.683h-81.921c-.929 0-1.684-.755-1.684-1.683v-18.448c0-.928.755-1.683 1.684-1.683.02 0 .038-.003.058-.003h81.805c.02 0 .039.003.058.003.928 0 1.683.755 1.683 1.683z"/></g></g></g></g></g></svg>