<svg id="Capa_1" enable-background="new 0 0 512 512" height="512" viewBox="0 0 512 512" width="512" xmlns="http://www.w3.org/2000/svg"><g><path d="m477.705 108.906-153.693 63.202-110.6-24.127-205.973-44.932c-4.343-.947-7.439-4.792-7.439-9.237v-77.381c0-6.033 5.575-10.523 11.469-9.237l353.349 77.08z" fill="#ffe177"/><path d="m497.454 113.212v17.791l-123.56 51.983-160.482-35.006 151.406-63.706z" fill="#fece85"/><path d="m512 116.385v83.826c0 6.634-6.13 11.569-12.609 10.158l-125.497-27.382 103.811-74.08 19.749 4.306z" fill="#fece85"/><g><path d="m512 62.455-14.546 68.548-32.626 38.168-106.377 44.761-224.621 94.509-32.317 13.598-23.076-13.598-69.814-41.145-8.623-5.079 8.623-3.626 106.14-44.658 351.868-148.048 30.936-13.011c6.861-2.884 14.433 2.143 14.433 9.581z" fill="#ffe177"/><g fill="#fece85"><path d="m512 62.455v86.875l-47.172 19.841c1.144-1.659 1.803-3.678 1.803-5.831v-97.455l30.936-13.011c6.861-2.884 14.433 2.143 14.433 9.581z"/><path d="m358.451 213.932-224.621 94.509h-114.813c-5.738 0-10.394-4.656-10.394-10.394v-39.456l106.14-44.658h243.688z"/></g></g><g><g><path d="m234.505 235.009c-3.132 0-6.078-1.918-7.238-5.024l-11.187-29.94c-1.494-3.997.536-8.448 4.533-9.942 3.996-1.494 8.448.536 9.942 4.533l11.187 29.94c1.494 3.997-.536 8.448-4.533 9.942-.892.333-1.806.491-2.704.491z" fill="#fe646f"/></g><g><path d="m206.502 245.473c-3.132 0-6.078-1.918-7.238-5.024l-11.187-29.94c-1.494-3.997.536-8.448 4.533-9.942 3.998-1.493 8.449.536 9.942 4.533l11.187 29.94c1.494 3.997-.536 8.448-4.533 9.942-.892.333-1.806.491-2.704.491z" fill="#fe646f"/></g><g><path d="m174.709 245.788c-3.131 0-6.077-1.917-7.238-5.024l-7.396-19.79c-1.494-3.997.535-8.448 4.533-9.942 3.994-1.492 8.448.535 9.942 4.533l7.396 19.79c1.494 3.997-.535 8.448-4.533 9.942-.891.333-1.805.491-2.704.491z" fill="#fe646f"/></g></g><g><path d="m501.603 332.57 10.397 78.096c0 5.069-3.647 9.395-8.643 10.25l-36.726 6.274-454.485 77.686c-6.346 1.082-12.146-3.811-12.146-10.25v-74.771c0-5.069 3.647-9.395 8.643-10.25l315.38-53.909 135.616-9.133z" fill="#ffe177"/><g fill="#fece85"><path d="m512 323.564v87.102c0 5.069-3.647 9.395-8.643 10.25l-36.726 6.274v-95.869z"/><path d="m512 323.564v32.132h-187.977z"/></g></g><g><path d="m0 248.458v72.209c0 6.573 5.329 11.902 11.902 11.902h489.701c5.742 0 10.397-4.655 10.397-10.397v-73.714c0-5.742-4.655-10.397-10.397-10.397h-491.206c-5.742 0-10.397 4.655-10.397 10.397z" fill="#ffe177"/><path d="m456.226 332.573h45.38c5.738 0 10.395-4.656 10.395-10.395v-73.72c0-5.738-4.656-10.395-10.395-10.395h-45.38c5.748 0 10.405 4.656 10.405 10.395v73.72c0 5.738-4.657 10.395-10.405 10.395z" fill="#fece85"/></g><g><g fill="#fe646f"><path d="m466.631 152.933c-.309.299-.659.577-1.03.824-3.554 2.369-8.355 1.401-10.714-2.153l-13.475-20.243 3.018 24.93c.01.093.021.185.031.278.319 3.843-1.844 7.428-5.388 8.942s-7.634.587-10.178-2.308c-.062-.072-.124-.144-.186-.216l-15.947-19.522 5.264 23.571c.927 4.162-1.7 8.293-5.862 9.22-.567.124-1.133.185-1.69.185-3.533 0-6.727-2.442-7.531-6.037l-11.281-50.53c-.855-4.038 1.082-8.077 4.698-9.89s8.005-.958 10.683 2.071c.062.072.124.144.185.216l19.141 23.426-3.616-29.875c-.01-.082-.021-.175-.031-.268-.34-4.028 2.081-7.799 5.882-9.148 3.812-1.36 8.066.031 10.343 3.369l27.681 41.588 1.123 1.69c2.115 3.174 1.569 7.346-1.12 9.88z"/><path d="m392.372 185.163c3.934-1.655 5.781-6.185 4.126-10.118l-20.29-48.223c-1.656-3.933-6.187-5.78-10.118-4.125-3.934 1.655-5.781 6.185-4.126 10.118l20.29 48.223c1.243 2.955 4.109 4.732 7.125 4.732.999 0 2.015-.195 2.993-.607z"/><path d="m504.706 137.903-20.14 8.468c-.958.402-1.978.608-2.998.608-.989 0-1.978-.196-2.915-.577-1.896-.773-3.41-2.266-4.203-4.152l-7.819-18.585-12.29-29.205c-.793-1.885-.804-4.008-.031-5.913.773-1.896 2.277-3.41 4.162-4.203l8.159-3.431 11.971-5.037c3.935-1.659 8.468.196 10.116 4.121 1.659 3.935-.185 8.468-4.121 10.116l-13.011 5.481 4.059 9.643 11.528-4.842c3.925-1.659 8.458.185 10.116 4.121 1.659 3.935-.196 8.468-4.121 10.116l-11.528 4.852 4.059 9.653 13.011-5.48c3.925-1.648 8.458.196 10.116 4.131 1.66 3.924-.195 8.456-4.12 10.115z"/><path d="m267.578 200.909c3.51 8.343 10.059 14.819 18.441 18.236 4.132 1.685 8.463 2.526 12.795 2.526 4.455 0 8.909-.891 13.14-2.671 6.914-2.909 12.169-7.803 15.196-14.153.593-1.245 1.103-2.552 1.515-3.886 1.26-4.077-1.024-8.403-5.102-9.663-4.079-1.259-8.403 1.025-9.663 5.102-.192.621-.428 1.226-.7 1.798-1.389 2.915-3.825 5.122-7.239 6.559-4.538 1.91-9.548 1.938-14.109.079-4.558-1.859-8.121-5.382-10.03-9.92-3.942-9.368.473-20.197 9.842-24.138 3.404-1.434 7.111-1.812 10.712-1.098 4.194.834 8.253-1.89 9.082-6.075.831-4.186-1.889-8.252-6.074-9.082-6.642-1.318-13.458-.622-19.713 2.011-17.222 7.246-25.338 27.152-18.093 44.375z"/><path d="m336.339 200.357c1.243 2.955 4.109 4.732 7.125 4.732.999 0 2.015-.195 2.993-.607 3.934-1.655 5.781-6.185 4.126-10.118l-4.516-10.734 20.085 9.722c1.085.525 2.231.774 3.36.774 2.87 0 5.627-1.606 6.961-4.362 1.859-3.841.253-8.462-3.589-10.321l-16.52-7.996c2.09-1.997 3.796-4.388 4.994-7.085 2.408-5.418 2.502-11.331.264-16.651-4.559-10.837-17.401-15.812-28.634-11.086l-12.814 5.392c-3.933 1.655-5.78 6.185-4.125 10.118zm2.642-49.489c3.319-1.397 7.163-.097 8.397 2.836.765 1.816.239 3.525-.141 4.381-.711 1.601-2.061 2.914-3.702 3.605-1.35.568-3.515 1.488-5.685 2.413l-4.561-10.84z"/><path d="m67.916 419.505c-1.463-3.768-5.285-6.083-9.307-5.627-4.017.455-7.229 3.567-7.812 7.567-.013.093-.025.185-.035.278l-3.256 29.917-13.327-27.16c-.042-.085-.085-.17-.13-.254-1.914-3.562-5.997-5.389-9.929-4.444-3.932.946-6.738 4.43-6.825 8.565l-.48 51.768c-.04 4.267 3.387 7.759 7.654 7.798.025.001.049.001.073.001 4.233 0 7.685-3.412 7.724-7.654l.224-24.143 11.105 22.63c.042.086.086.171.131.255 1.824 3.392 5.592 5.222 9.392 4.555 3.793-.669 6.715-3.679 7.269-7.49.014-.092.025-.184.035-.276l2.717-24.966 8.526 22.781c1.495 3.996 5.948 6.024 9.944 4.528 3.996-1.495 6.024-5.948 4.528-9.944z"/><path d="m120.69 456.329-13.915 2.378-1.764-10.317 12.328-2.107c4.206-.719 7.033-4.711 6.314-8.918-.718-4.206-4.709-7.034-8.918-6.314l-12.328 2.107-1.764-10.318 13.915-2.379c4.206-.719 7.033-4.711 6.314-8.918-.718-4.206-4.707-7.033-8.918-6.314l-21.531 3.68c-2.02.345-3.82 1.478-5.004 3.151s-1.655 3.746-1.31 5.767l4.367 25.549v.001s0 .001 0 .001l4.367 25.548c.345 2.02 1.478 3.82 3.151 5.004 1.314.931 2.876 1.421 4.465 1.421.434 0 .869-.037 1.302-.111l21.531-3.681c4.206-.719 7.033-4.711 6.314-8.917-.718-4.205-4.706-7.033-8.916-6.313z"/><path d="m450.828 415.784c-4.007 1.494-8.458-.536-9.952-4.533l-8.52-22.777-2.72 24.972c-.01.093-.021.185-.041.278-.556 3.812-3.472 6.82-7.263 7.489-3.791.659-7.561-1.164-9.395-4.553-.041-.082-.093-.175-.134-.258l-11.105-22.633-.216 24.137c-.041 4.244-3.492 7.664-7.726 7.664h-.072c-4.265-.041-7.696-3.533-7.654-7.798l.474-51.777c.093-4.131 2.895-7.613 6.83-8.561 3.925-.948 8.015.875 9.931 4.44.041.082.082.175.124.258l13.33 27.166 3.255-29.927c.01-.093.021-.185.041-.268.175-1.246.608-2.4 1.236-3.41 1.411-2.266 3.801-3.853 6.573-4.162 3.461-.391 6.789 1.267 8.571 4.162.288.453.525.948.732 1.463l18.224 48.686c1.493 3.998-.536 8.448-4.523 9.942z"/><path d="m369.882 369.258c-.719-4.205-4.704-7.037-8.918-6.314-4.206.719-7.033 4.711-6.314 8.918l8.814 51.569c.644 3.766 3.91 6.426 7.607 6.426.432 0 .87-.036 1.311-.112 4.206-.719 7.033-4.711 6.314-8.918z"/><path d="m492.509 409.212-21.531 3.678c-.443.082-.875.113-1.308.113-1.061 0-2.101-.227-3.039-.629-2.328-.999-4.11-3.121-4.574-5.8l-8.695-50.881-.041-.216c-.34-2.019.134-4.09 1.319-5.759 1.174-1.679 2.977-2.812 4.996-3.152l6.995-1.195 14.536-2.493c4.213-.721 8.2 2.112 8.921 6.315.422 2.441-.361 4.801-1.906 6.5-1.113 1.236-2.637 2.112-4.409 2.421l-13.918 2.38 1.762 10.312 12.331-2.102c4.213-.721 8.2 2.102 8.921 6.315.711 4.203-2.112 8.2-6.315 8.911l-12.331 2.112 1.762 10.312 13.918-2.369c4.213-.732 8.2 2.101 8.921 6.305.721 4.214-2.112 8.2-6.315 8.922z"/></g><path d="m436.395 355.694h-15.144c1.411-2.266 3.801-3.853 6.573-4.162 3.461-.392 6.789 1.267 8.571 4.162z" fill="#fd4755"/><path d="m488.182 355.694h-34.82l-.041-.216c-.34-2.019.134-4.09 1.319-5.759 1.174-1.679 2.977-2.812 4.996-3.152l6.995-1.195 14.536-2.493c4.213-.721 8.2 2.112 8.921 6.315.422 2.441-.361 4.8-1.906 6.5z" fill="#fd4755"/><path d="m303.972 420.099c-3.685-2.149-8.418-.904-10.566 2.782-.326.558-.692 1.093-1.087 1.588-2.016 2.524-4.89 4.12-8.541 4.745-10.013 1.707-19.562-5.046-21.275-15.064-.829-4.853.281-9.738 3.126-13.757 2.845-4.018 7.085-6.688 11.937-7.517 3.648-.623 7.339-.15 10.684 1.363 3.889 1.761 8.466.033 10.224-3.854 1.76-3.888.033-8.465-3.854-10.224-6.165-2.789-12.96-3.66-19.657-2.516-18.417 3.148-30.84 20.693-27.691 39.11 2.82 16.494 17.185 28.18 33.383 28.18 1.889 0 3.804-.159 5.726-.488 7.393-1.264 13.622-4.837 18.015-10.336.863-1.083 1.656-2.241 2.357-3.443 2.15-3.688.905-8.419-2.781-10.569z" fill="#fe646f"/><path d="m354.7 419.751-14.274-11.537c2.489-1.471 4.692-3.412 6.472-5.767 3.575-4.73 5.009-10.468 4.036-16.156-.972-5.689-4.229-10.625-9.173-13.899-4.773-3.16-10.523-4.367-16.196-3.397l-13.703 2.343c-4.206.719-7.033 4.711-6.314 8.918l8.814 51.569c.644 3.766 3.91 6.426 7.607 6.426.432 0 .87-.036 1.311-.112 4.206-.719 7.033-4.711 6.314-8.918l-1.962-11.479 17.354 14.027c1.43 1.155 3.147 1.718 4.852 1.718 2.254 0 4.487-.981 6.014-2.87 2.682-3.319 2.166-8.184-1.152-10.866zm-26.531-35.524c1.758-.302 3.602.082 5.06 1.049.782.518 2.142 1.676 2.474 3.619.332 1.942-.566 3.486-1.132 4.234-1.056 1.397-2.669 2.37-4.425 2.671-1.444.246-3.761.651-6.083 1.059l-1.982-11.592z" fill="#fe646f"/><path d="m319.598 251.441c-4.049-.224-7.728 2.297-8.977 6.142-.029.089-.056.179-.082.269l-8.25 28.94-8.56-29.016c-.027-.093-.056-.185-.087-.276-1.29-3.833-5.017-6.319-9.042-6.05-4.035.272-7.386 3.234-8.166 7.292l-9.196 50.948c-.758 4.199 2.032 8.218 6.231 8.976 4.193.756 8.218-2.032 8.976-6.231l4.289-23.76 7.133 24.177c.027.091.055.182.086.272 1.22 3.638 4.61 6.074 8.445 6.074h.042c3.852-.019 7.24-2.492 8.431-6.155.029-.09.056-.179.083-.27l6.884-24.151 4.566 23.892c.802 4.193 4.857 6.939 9.039 6.139 4.191-.801 6.94-4.848 6.138-9.039l-9.758-51.055c-.808-3.963-4.19-6.889-8.225-7.118z" fill="#fe646f"/><path d="m259.497 311.471v-52.317c0-4.267-3.46-7.726-7.727-7.726s-7.726 3.459-7.726 7.726v52.317c0 4.267 3.459 7.726 7.726 7.726s7.727-3.459 7.727-7.726z" fill="#fe646f"/><path d="m373.637 267.357c4.268 0 7.726-3.459 7.726-7.726s-3.459-7.726-7.726-7.726h-21.843c-4.268 0-7.726 3.459-7.726 7.726v51.84c0 4.267 3.459 7.726 7.726 7.726h21.843c4.268 0 7.726-3.459 7.726-7.726s-3.459-7.726-7.726-7.726h-14.117v-10.467h12.506c4.268 0 7.726-3.459 7.726-7.726s-3.459-7.726-7.726-7.726h-12.506v-10.467h14.117z" fill="#fe646f"/><path d="m184.017 312.047c1.026-.914 2.003-1.921 2.902-2.992 2.744-3.269 2.318-8.142-.95-10.886-3.27-2.743-8.143-2.318-10.885.95-.422.502-.874.969-1.345 1.388-2.412 2.148-5.513 3.237-9.218 3.237-10.163 0-18.432-8.269-18.432-18.432 0-10.164 8.269-18.433 18.432-18.433 3.695 0 7.257 1.087 10.301 3.143 3.537 2.389 8.339 1.458 10.727-2.077 2.389-3.536 1.459-8.339-2.077-10.727-5.608-3.789-12.161-5.791-18.951-5.791-18.684 0-33.885 15.201-33.885 33.885s15.201 33.885 33.885 33.885c7.503 0 14.244-2.473 19.496-7.15z" fill="#fe646f"/><path d="m237.951 272.75c0-11.758-9.91-21.323-22.093-21.323h-13.902c-4.267 0-7.726 3.459-7.726 7.726v52.317c0 4.267 3.459 7.726 7.726 7.726s7.726-3.459 7.726-7.726v-11.646l14.742 16.75c1.527 1.735 3.659 2.622 5.803 2.622 1.813 0 3.634-.634 5.102-1.927 3.203-2.819 3.515-7.701.695-10.904l-12.125-13.776c8.213-3.112 14.052-10.822 14.052-19.839zm-28.269-5.87h6.176c3.599 0 6.64 2.688 6.64 5.87s-3.041 5.871-6.64 5.871c-1.465 0-3.817.009-6.176.019z" fill="#fe646f"/><path d="m153.864 121.366c3.926 1.668 8.464-.16 10.133-4.087l9.447-22.219 1.598 25.156c.006.096.014.192.024.288.388 3.832 3.175 6.967 6.935 7.8s7.611-.829 9.581-4.138c.047-.08.094-.16.138-.242l12.065-22.025-.842 24.309c-.147 4.265 3.19 7.842 7.454 7.989.092.003.182.005.273.005 4.143 0 7.572-3.286 7.717-7.459l1.799-51.949c.091-4.042-2.56-7.645-6.445-8.761-3.885-1.117-8.044.53-10.113 4.002-.048.08-.094.161-.139.243l-14.459 26.394-1.918-30.192c-.006-.096-.014-.192-.024-.288-.407-4.023-3.48-7.273-7.475-7.903s-7.92 1.516-9.58 5.301l-20.257 47.643c-1.669 3.926.161 8.463 4.088 10.133z" fill="#fe646f"/><path d="m132.587 117.075c.576.131 1.152.194 1.719.194 3.527 0 6.713-2.431 7.527-6.016l11.594-51.017c.946-4.161-1.661-8.301-5.822-9.246-4.157-.944-8.301 1.661-9.246 5.822l-11.594 51.017c-.946 4.161 1.661 8.301 5.822 9.246z" fill="#fe646f"/><path d="m272.153 87.713c-.937 4.162-5.079 6.768-9.241 5.82l-13.763-3.132-2.328 10.209 12.197 2.771c4.162.948 6.768 5.089 5.821 9.241-.814 3.585-3.997 6.016-7.52 6.016-.567 0-1.144-.062-1.72-.185l-12.197-2.771-2.318 10.199 13.763 3.132c.69.155 1.339.402 1.937.721 2.998 1.607 4.677 5.058 3.884 8.53-.814 3.585-3.997 6.016-7.52 6.016-.567 0-1.143-.072-1.72-.196l-18.677-4.244-2.627-.597c-4.162-.948-6.768-5.089-5.821-9.251l5.748-25.27 5.738-25.281c.948-4.162 5.089-6.768 9.251-5.82l21.294 4.842c4.161.946 6.767 5.088 5.819 9.25z" fill="#fe646f"/><path d="m260.667 138.264c-.814 3.585-3.997 6.016-7.52 6.016-.567 0-1.143-.072-1.72-.196l-18.677-4.244 24.034-10.106c2.997 1.607 4.676 5.058 3.883 8.53z" fill="#fd4755"/><path d="m47.507 97.741c2.372.539 4.723.807 7.028.807 4.804 0 9.405-1.163 13.568-3.46 1.207-.666 2.383-1.432 3.496-2.277 3.398-2.581 4.061-7.428 1.48-10.826-2.58-3.399-7.428-4.061-10.826-1.48-.518.394-1.062.748-1.615 1.054-2.828 1.561-6.094 1.935-9.706 1.114-9.911-2.253-16.142-12.149-13.89-22.059 2.252-9.911 12.146-16.143 22.059-13.89 3.603.819 6.835 2.668 9.347 5.348 2.918 3.113 7.808 3.271 10.921.353 3.113-2.919 3.271-7.808.353-10.921-4.629-4.937-10.575-8.343-17.196-9.848-18.222-4.141-36.411 7.314-40.552 25.533-4.141 18.22 7.313 36.411 25.533 40.552z" fill="#fe646f"/><path d="m84.01 106.036c.576.131 1.152.194 1.719.194 3.527 0 6.713-2.431 7.527-6.016l2.581-11.357 10.664 19.601c1.401 2.576 4.054 4.035 6.794 4.035 1.247 0 2.513-.303 3.686-.941 3.748-2.039 5.133-6.731 3.094-10.479l-8.768-16.117c2.862-.406 5.64-1.362 8.184-2.855 5.113-3.001 8.634-7.754 9.912-13.382 1.279-5.628.158-11.434-3.155-16.351-3.2-4.746-8.052-8.063-13.662-9.338l-13.557-3.081c-1.997-.454-4.095-.096-5.829.996s-2.963 2.828-3.418 4.826l-6.04 26.576-5.554 24.443c-.946 4.161 1.661 8.301 5.822 9.246zm19.128-49.304 6.023 1.369c1.736.395 3.294 1.454 4.273 2.906.524.777 1.338 2.368.901 4.29s-1.858 3.005-2.666 3.479c-1.51.887-3.372 1.17-5.11.774-1.428-.325-3.724-.838-6.027-1.35z" fill="#fe646f"/><path d="m99.003 259.153c0-4.267-3.459-7.726-7.726-7.726s-7.726 3.459-7.726 7.726v31.962c0 4.267 3.459 7.726 7.726 7.726s7.726-3.459 7.726-7.726z" fill="#fe646f"/><path d="m91.277 303.229c-4.267 0-7.726 3.459-7.726 7.726v.515c0 4.267 3.459 7.726 7.726 7.726s7.726-3.459 7.726-7.726v-.515c0-4.267-3.459-7.726-7.726-7.726z" fill="#fe646f"/><path d="m69.109 259.153c0-4.267-3.459-7.726-7.726-7.726s-7.726 3.459-7.726 7.726v31.962c0 4.267 3.459 7.726 7.726 7.726s7.726-3.459 7.726-7.726z" fill="#fe646f"/><path d="m61.383 303.229c-4.267 0-7.726 3.459-7.726 7.726v.515c0 4.267 3.459 7.726 7.726 7.726s7.726-3.459 7.726-7.726v-.515c0-4.267-3.459-7.726-7.726-7.726z" fill="#fe646f"/><path d="m39.215 259.153c0-4.267-3.459-7.726-7.726-7.726s-7.726 3.459-7.726 7.726v31.962c0 4.267 3.459 7.726 7.726 7.726s7.726-3.459 7.726-7.726z" fill="#fe646f"/><path d="m31.489 303.229c-4.267 0-7.726 3.459-7.726 7.726v.515c0 4.267 3.459 7.726 7.726 7.726s7.726-3.459 7.726-7.726v-.515c0-4.267-3.459-7.726-7.726-7.726z" fill="#fe646f"/><path d="m478.009 298.841c4.268 0 7.726-3.459 7.726-7.726v-31.962c0-4.267-3.459-7.726-7.726-7.726s-7.726 3.459-7.726 7.726v31.962c0 4.267 3.458 7.726 7.726 7.726z" fill="#fd4755"/><path d="m470.283 311.471c0 4.267 3.459 7.726 7.726 7.726s7.726-3.459 7.726-7.726v-.515c0-4.267-3.459-7.726-7.726-7.726s-7.726 3.459-7.726 7.726z" fill="#fd4755"/><path d="m455.841 259.153c0-4.267-3.459-7.726-7.726-7.726s-7.726 3.459-7.726 7.726v31.962c0 4.267 3.459 7.726 7.726 7.726s7.726-3.459 7.726-7.726z" fill="#fe646f"/><path d="m448.115 303.229c-4.268 0-7.726 3.459-7.726 7.726v.515c0 4.267 3.459 7.726 7.726 7.726s7.726-3.459 7.726-7.726v-.515c0-4.267-3.459-7.726-7.726-7.726z" fill="#fe646f"/><path d="m425.947 259.153c0-4.267-3.459-7.726-7.726-7.726-4.268 0-7.726 3.459-7.726 7.726v31.962c0 4.267 3.459 7.726 7.726 7.726 4.268 0 7.726-3.459 7.726-7.726z" fill="#fe646f"/><path d="m418.22 303.229c-4.268 0-7.726 3.459-7.726 7.726v.515c0 4.267 3.459 7.726 7.726 7.726 4.268 0 7.726-3.459 7.726-7.726v-.515c.001-4.267-3.458-7.726-7.726-7.726z" fill="#fe646f"/><path d="m224.272 435.495c4.225-.596 7.167-4.505 6.571-8.73l-4.465-31.649c-.596-4.225-4.501-7.169-8.73-6.571-4.225.596-7.168 4.505-6.571 8.73l4.465 31.649c.544 3.859 3.852 6.648 7.641 6.648.359 0 .722-.025 1.089-.077z" fill="#fe646f"/><path d="m233.615 446.412c-.596-4.225-4.501-7.163-8.729-6.572-4.225.596-7.168 4.505-6.571 8.73l.071.51c.545 3.86 3.852 6.648 7.641 6.648.359 0 .723-.025 1.089-.076 4.225-.596 7.168-4.505 6.571-8.73z" fill="#fe646f"/><path d="m194.671 439.671c4.225-.596 7.167-4.505 6.571-8.73l-4.465-31.648c-.596-4.225-4.504-7.169-8.73-6.571-4.225.596-7.168 4.505-6.571 8.73l4.465 31.648c.544 3.859 3.852 6.648 7.641 6.648.359 0 .723-.025 1.089-.077z" fill="#fe646f"/><path d="m204.014 450.588c-.596-4.225-4.499-7.165-8.73-6.572-4.225.596-7.168 4.505-6.571 8.73l.072.51c.544 3.86 3.852 6.648 7.641 6.648.359 0 .723-.025 1.089-.076 4.225-.596 7.168-4.505 6.571-8.73z" fill="#fe646f"/><path d="m165.07 443.848c4.225-.596 7.168-4.505 6.571-8.73l-4.465-31.648c-.596-4.225-4.502-7.168-8.73-6.571-4.225.596-7.167 4.505-6.571 8.73l4.465 31.648c.544 3.859 3.852 6.648 7.641 6.648.359 0 .723-.025 1.089-.077z" fill="#fe646f"/><path d="m174.413 454.764c-.596-4.225-4.498-7.165-8.73-6.572-4.225.596-7.168 4.505-6.571 8.73l.072.51c.544 3.86 3.852 6.648 7.641 6.648.359 0 .723-.025 1.089-.076 4.225-.596 7.167-4.505 6.571-8.73z" fill="#fe646f"/></g><g fill="#fd4755"><path d="m492.509 409.212-21.531 3.678c-.443.082-.875.113-1.308.113-1.061 0-2.101-.227-3.039-.629v-67.003l14.536-2.493c4.213-.721 8.2 2.112 8.921 6.315.721 4.213-2.112 8.2-6.315 8.921l-13.918 2.38 1.762 10.312 12.331-2.102c4.213-.721 8.2 2.102 8.921 6.315.711 4.203-2.112 8.2-6.315 8.911l-12.331 2.112 1.762 10.312 13.918-2.369c4.213-.732 8.2 2.101 8.921 6.305.721 4.214-2.112 8.2-6.315 8.922z"/><path d="m467.754 143.054c2.112 3.173 1.566 7.345-1.123 9.88v-11.569z"/><path d="m504.706 137.903-20.14 8.468c-.958.402-1.978.608-2.998.608-.989 0-1.978-.196-2.915-.577-1.896-.773-3.41-2.266-4.203-4.152l-7.819-18.585v-42.752l11.971-5.037c3.935-1.659 8.468.196 10.116 4.121 1.659 3.935-.185 8.468-4.121 10.116l-13.011 5.481 4.059 9.643 11.528-4.842c3.925-1.659 8.458.185 10.116 4.121 1.659 3.935-.196 8.468-4.121 10.116l-11.528 4.852 4.059 9.653 13.011-5.48c3.925-1.648 8.458.196 10.116 4.131 1.66 3.924-.195 8.456-4.12 10.115z"/></g></g></svg>