<svg id="Capa_1" enable-background="new 0 0 510 510" height="512" viewBox="0 0 510 510" width="512" xmlns="http://www.w3.org/2000/svg" xmlns:xlink="http://www.w3.org/1999/xlink"><linearGradient id="lg1"><stop offset="0" stop-color="#ff7044"/><stop offset="1" stop-color="#f92814"/></linearGradient><linearGradient id="SVGID_1_" gradientUnits="userSpaceOnUse" x1="310.719" x2="284.385" xlink:href="#lg1" y1="432.735" y2="411.668"/><linearGradient id="SVGID_2_" gradientTransform="matrix(.707 .707 -.707 .707 390.524 -27.716)" gradientUnits="userSpaceOnUse" x1="194.928" x2="247.036" xlink:href="#lg1" y1="391.313" y2="459.095"/><linearGradient id="lg2"><stop offset="0" stop-color="#f9f7fc"/><stop offset="1" stop-color="#f0ddfc"/></linearGradient><linearGradient id="SVGID_3_" gradientTransform="matrix(0 1 -1 0 541.813 31.813)" gradientUnits="userSpaceOnUse" x1="277.956" x2="367.869" xlink:href="#lg2" y1="286.813" y2="286.813"/><linearGradient id="lg3"><stop offset="0" stop-color="#f0ddfc" stop-opacity="0"/><stop offset=".2889" stop-color="#c8b7e0" stop-opacity=".289"/><stop offset=".5915" stop-color="#a595c8" stop-opacity=".592"/><stop offset=".8395" stop-color="#8f81b8" stop-opacity=".84"/><stop offset="1" stop-color="#8779b3"/></linearGradient><linearGradient id="SVGID_4_" gradientUnits="userSpaceOnUse" x1="290.443" x2="262.443" xlink:href="#lg3" y1="353.593" y2="212.593"/><linearGradient id="SVGID_5_" gradientTransform="matrix(0 1 -1 0 541.813 31.813)" gradientUnits="userSpaceOnUse" x1="311.705" x2="311.705" xlink:href="#lg3" y1="541.73" y2="442.796"/><linearGradient id="SVGID_6_" gradientTransform="matrix(0 1 -1 0 541.813 31.813)" gradientUnits="userSpaceOnUse" x1="363.169" x2="271.189" xlink:href="#lg3" y1="532.193" y2="440.213"/><linearGradient id="SVGID_7_" gradientTransform="matrix(0 1 -1 0 541.813 31.813)" gradientUnits="userSpaceOnUse" x1="290.538" x2="350.683" xlink:href="#lg2" y1="484.285" y2="409.735"/><linearGradient id="SVGID_8_" gradientUnits="userSpaceOnUse" x1="278.185" x2="278.185" xlink:href="#lg1" y1="345.305" y2="406.786"/><linearGradient id="lg4"><stop offset="0" stop-color="#f92814" stop-opacity="0"/><stop offset="1" stop-color="#c1272d"/></linearGradient><linearGradient id="SVGID_9_" gradientUnits="userSpaceOnUse" x1="278.185" x2="278.185" xlink:href="#lg4" y1="329.643" y2="290.504"/><linearGradient id="lg5"><stop offset="0" stop-color="#7e8595"/><stop offset="1" stop-color="#555a66"/></linearGradient><linearGradient id="SVGID_10_" gradientUnits="userSpaceOnUse" x1="169.44" x2="406.328" xlink:href="#lg5" y1="220.132" y2="220.132"/><linearGradient id="lg6"><stop offset="0" stop-color="#555a66" stop-opacity="0"/><stop offset="1" stop-color="#555a66"/></linearGradient><linearGradient id="SVGID_11_" gradientUnits="userSpaceOnUse" x1="152.3" x2="97.125" xlink:href="#lg6" y1="220.132" y2="220.132"/><linearGradient id="SVGID_12_" gradientUnits="userSpaceOnUse" x1="282.734" x2="237.374" xlink:href="#lg6" y1="291.951" y2="64.226"/><linearGradient id="SVGID_13_" gradientUnits="userSpaceOnUse" x1="255" x2="255" xlink:href="#lg5" y1="87.027" y2="191.098"/><linearGradient id="SVGID_14_" gradientUnits="userSpaceOnUse" x1="197.706" x2="319.045" xlink:href="#lg5" y1="42.019" y2="207.141"/><linearGradient id="SVGID_15_" gradientUnits="userSpaceOnUse" x1="254.619" x2="229.52" y1="123.444" y2="-131.228"><stop offset="0" stop-color="#bec3d2" stop-opacity="0"/><stop offset=".5577" stop-color="#d4d9e4" stop-opacity=".558"/><stop offset="1" stop-color="#e9edf5"/></linearGradient><linearGradient id="SVGID_16_" gradientUnits="userSpaceOnUse" x1="220.554" x2="196.279" xlink:href="#lg6" y1="166.144" y2="103.028"/><linearGradient id="lg7"><stop offset="0" stop-color="#ffda45"/><stop offset="1" stop-color="#ffa425"/></linearGradient><linearGradient id="SVGID_17_" gradientUnits="userSpaceOnUse" x1="142.643" x2="182.017" xlink:href="#lg7" y1="114.727" y2="168.307"/><linearGradient id="SVGID_18_" gradientUnits="userSpaceOnUse" x1="245.199" x2="263.653" xlink:href="#lg5" y1="93.81" y2="112.264"/><linearGradient id="SVGID_19_" gradientUnits="userSpaceOnUse" x1="87.511" x2="136.234" xlink:href="#lg7" y1="269.087" y2="267.967"/><linearGradient id="SVGID_20_" gradientUnits="userSpaceOnUse" x1="106.168" x2="73.345" y1="266.473" y2="281.545"><stop offset="0" stop-color="#ffda45" stop-opacity="0"/><stop offset="1" stop-color="#fcee21"/></linearGradient><linearGradient id="SVGID_21_" gradientUnits="userSpaceOnUse" x1="86.694" x2="143.918" y1="273.474" y2="251.236"><stop offset="0" stop-color="#ffda45" stop-opacity="0"/><stop offset="1" stop-color="#b53759"/></linearGradient><linearGradient id="SVGID_22_" gradientUnits="userSpaceOnUse" x1="90.463" x2="112.719" xlink:href="#lg1" y1="215.378" y2="237.633"/><linearGradient id="SVGID_23_" gradientUnits="userSpaceOnUse" x1="98.605" x2="83.054" y1="223.519" y2="207.968"><stop offset="0" stop-color="#ff7044" stop-opacity="0"/><stop offset="1" stop-color="#ffa425"/></linearGradient><linearGradient id="SVGID_24_" gradientUnits="userSpaceOnUse" x1="97.49" x2="121.11" xlink:href="#lg4" y1="228.393" y2="184.462"/><path d="m254.098 379.471c8.799-8.738 23.078-8.54 31.846.228l47.45 47.45c.643.643.297 1.743-.598 1.903l-22.246 3.976c-1.534.274-2.734 1.475-3.008 3.008l-3.976 22.245c-.16.895-1.26 1.24-1.903.598l-47.622-47.622c-8.78-8.781-8.761-23.029.057-31.786z" fill="url(#SVGID_1_)"/><path d="m284.82 379.471c-8.799-8.738-23.078-8.54-31.846.228l-47.45 47.45c-.643.643-.297 1.743.598 1.903l22.245 3.976c1.534.274 2.734 1.475 3.008 3.008l3.976 22.245c.16.895 1.26 1.24 1.903.598l47.622-47.622c8.781-8.781 8.762-23.029-.056-31.786z" fill="url(#SVGID_2_)"/><path d="m459.242 407.535c15.471-.649 27.926-29.051 27.926-64.017s-12.455-63.368-27.926-64.017v-.033h-407.953c-15.712 0-28.456 28.675-28.456 64.05s12.744 64.05 28.456 64.05h407.953z" fill="url(#SVGID_3_)"/><path d="m459.242 279.501v-.033h-377.577c-1.542 11.563-2.427 21.334-2.427 24.595 0 2.166 1.755 3.845 4.47 5.046l98.459 98.459h277.075v-.032c15.471-.649 27.926-29.051 27.926-64.017 0-34.967-12.455-63.369-27.926-64.018z" fill="url(#SVGID_4_)"/><path d="m51.289 407.568c-15.712 0-28.456-28.675-28.456-64.05s12.744-64.05 28.456-64.05c15.725 0 28.469 28.675 28.469 64.05s-12.745 64.05-28.469 64.05z" fill="url(#SVGID_5_)"/><path d="m51.289 407.568c-15.712 0-28.456-28.675-28.456-64.05 0-4.027.169-7.965.482-11.789.169-1.044.364-2.053.586-3.044.273-1.204.573-2.372.898-3.496.221-.743.456-1.469.703-2.168.13-.354.247-.699.377-1.036 1.796-4.761 4.192-8.355 6.912-10.213 1.159-.796 2.395-1.283 3.658-1.407.208-.018.43-.026.638-.026h38.558c2.603 9.682 4.113 21.037 4.113 33.18 0 .283 0 .575-.013.859-.196 34.975-12.862 63.19-28.456 63.19z" fill="url(#SVGID_6_)"/><path d="m79.745 344.377h-27.923c0-.283.013-.566.013-.859 0-18.32-6.6-33.18-14.749-33.18h38.558c2.603 9.682 4.113 21.037 4.113 33.18.001.283.001.575-.012.859z" fill="url(#SVGID_7_)"/><path d="m284.994 279.501v-.033h-41.543v.033c15.471.649 27.926 29.051 27.926 64.017s-12.455 63.368-27.926 64.017v.032h41.543v-.032c15.471-.649 27.926-29.051 27.926-64.017-.001-34.966-12.455-63.368-27.926-64.017z" fill="url(#SVGID_8_)"/><path d="m284.994 279.501v-.033h-41.543v.033c15.471.649 27.926 29.051 27.926 64.017s-12.455 63.368-27.926 64.017v.032h41.543v-.032c15.471-.649 27.926-29.051 27.926-64.017-.001-34.966-12.455-63.368-27.926-64.017z" fill="url(#SVGID_9_)"/><path d="m93.852 135.077h322.296c8.029 0 14.538 6.509 14.538 14.538v80.14c0 21.418-13.117 40.65-33.056 48.469-91.688 35.953-193.571 35.953-285.259 0-19.939-7.819-33.056-27.051-33.056-48.469v-80.14c-.001-8.029 6.508-14.538 14.537-14.538z" fill="url(#SVGID_10_)"/><path d="m416.148 135.077h-319.255v133.675c4.484 3.966 9.691 7.202 15.478 9.471 91.688 35.953 193.571 35.953 285.259 0 19.94-7.819 33.056-27.051 33.056-48.469v-80.14c0-8.028-6.509-14.537-14.538-14.537z" fill="url(#SVGID_11_)"/><path d="m416.148 135.077h-322.296c-8.029 0-14.538 6.509-14.538 14.538v7.653l146.839 146.838c57.895 4.285 116.517-4.332 171.477-25.883 19.94-7.819 33.056-27.051 33.056-48.469v-80.14c0-8.028-6.509-14.537-14.538-14.537z" fill="url(#SVGID_12_)"/><path d="m509.991 120.112c.051-1.639-.886-3.307-2.826-3.834l-231.022-62.671c-13.845-3.756-28.44-3.756-42.285 0l-231.022 62.672c-1.94.526-2.878 2.195-2.827 3.834v12.575c-.051 1.639.886 3.307 2.827 3.834l231.021 62.671c13.845 3.756 28.44 3.756 42.285 0l231.022-62.671c1.94-.526 2.878-2.195 2.826-3.834v-12.576z" fill="url(#SVGID_13_)"/><path d="m233.857 53.607-231.021 62.672c-3.781 1.026-3.781 6.39 0 7.416l231.021 62.671c13.845 3.756 28.44 3.756 42.285 0l231.021-62.671c3.781-1.026 3.781-6.39 0-7.416l-231.02-62.672c-13.845-3.755-28.441-3.755-42.286 0z" fill="url(#SVGID_14_)"/><path d="m236.096 67.964-206.557 56.035c-3.381.917-3.381 5.713 0 6.631l206.558 56.035c12.379 3.358 25.429 3.358 37.807 0l206.558-56.035c3.381-.917 3.381-5.713 0-6.631l-206.558-56.035c-12.379-3.358-25.429-3.358-37.808 0z" fill="url(#SVGID_15_)"/><path d="m255 88.772c-8.738 0-15.974 6.356-17.384 14.692l-119.281 32.359c-12.641 3.43-22.428 12.928-26.564 24.824l142.087 38.545c13.845 3.756 28.44 3.756 42.285 0l75.876-20.584-83.351-83.351c-3.238-3.956-8.157-6.485-13.668-6.485z" fill="url(#SVGID_16_)"/><path d="m96.449 221.807c-3.772 0-6.83-3.058-6.83-6.83v-41.611c0-17.518 11.809-32.956 28.716-37.543l135.681-36.808c3.639-.979 7.392 1.164 8.38 4.803.987 3.64-1.163 7.392-4.803 8.381l-135.682 36.808c-10.971 2.976-18.633 12.992-18.633 24.359v41.611c0 3.772-3.057 6.83-6.829 6.83z" fill="url(#SVGID_17_)"/><path d="m272.652 106.424c0 9.749-35.303 9.749-35.303 0s7.903-17.652 17.652-17.652c9.748 0 17.651 7.903 17.651 17.652z" fill="url(#SVGID_18_)"/><path d="m114.547 304.068c0 9.749-35.303 9.749-35.303 0s7.903-77.716 17.652-77.716c9.748 0 17.651 67.967 17.651 77.716z" fill="url(#SVGID_19_)"/><path d="m114.541 304.063c0 3.254-3.949 5.427-9.214 6.507-5.19 1.068-11.66 1.068-16.863 0-.807-1.08-1.279-2.397-1.279-3.974 0-9.996 4.284-79.149 9.586-80.229.037-.012.087-.012.124-.012s.087 0 .124.012c9.699.572 17.522 67.986 17.522 77.696z" fill="url(#SVGID_20_)"/><path d="m108.718 304.063c0 4.644-5.364 7.078-11.002 7.302-.546.012-1.105.012-1.664 0-8.531-.149-16.813-2.583-16.813-7.302 0-9.698 7.823-77.001 17.509-77.696.05-.012.099-.012.149-.012s.099 0 .149.012c6.469 1.043 11.672 68.023 11.672 77.696z" fill="url(#SVGID_21_)"/><circle cx="96.893" cy="221.807" fill="url(#SVGID_22_)" r="17.184"/><circle cx="96.893" cy="221.807" fill="url(#SVGID_23_)" r="14.341"/><path d="m104.58 206.435c1.159 2.313 1.812 4.923 1.812 7.687 0 9.49-7.693 17.184-17.184 17.184-2.763 0-5.374-.653-7.687-1.812 2.821 5.631 8.645 9.497 15.372 9.497 9.49 0 17.184-7.693 17.184-17.184 0-6.727-3.866-12.55-9.497-15.372z" fill="url(#SVGID_24_)"/></svg>