<?xml version="1.0" encoding="UTF-8"?>
<svg xmlns="http://www.w3.org/2000/svg" viewBox="0 0 64 64" width="512" height="512"><g id="Outline"><path d="M47.818,16.4l-9.189,3.675a1,1,0,1,0,.742,1.858L43.443,20.3l1.286,3.217-5.176,2.588a1,1,0,0,0-.548.795L38.1,36H29a1,1,0,0,0,0,2h9.087l.619,6.814a1,1,0,0,0,.995.91c.03,0,.061,0,.092,0a1,1,0,0,0,.905-1.087L40.005,37l.935-9.356L52.3,21.971a3.975,3.975,0,0,0,2.091-4.548L52.47,9.757a3.062,3.062,0,0,0-5.94,1.486ZM49.243,9.47a1.062,1.062,0,0,1,1.287.773l1.916,7.666A1.987,1.987,0,0,1,51.4,20.182l-4.875,2.437L45.3,19.557l4.071-1.628a1,1,0,0,0,.6-1.172l-1.5-6A1.063,1.063,0,0,1,49.243,9.47Z"/><path d="M27.447,55.9a1,1,0,0,0,.472-1.289l-2.683-6.26,5.309-3.792,2.269,5.674A5.97,5.97,0,0,0,38.385,54H48a5.006,5.006,0,0,0,5,5,1,1,0,0,0,1-1V47a1,1,0,0,0-1-1H50a1.006,1.006,0,0,0-.555.168l-2.681,1.788-6.622-.946a1,1,0,0,0-.284,1.98l6.482.926L47.382,52h-9a3.978,3.978,0,0,1-3.713-2.515l-2.743-6.857a1,1,0,0,0-1.51-.442l-7,5a1,1,0,0,0-.338,1.208l2.628,6.133L23.324,55.72,19.1,49.683a3.98,3.98,0,0,1,.3-4.969l6.341-7.045a1,1,0,0,0,.251-.779l-1-9a1,1,0,0,0-.394-.69l-3.587-2.69V19.625l4.54,2.27A1,1,0,0,0,26,22h2a4,4,0,0,0,8,0V20.46A5.983,5.983,0,0,0,38,16V14.37A5.482,5.482,0,0,0,35.5,4H34.115a16.532,16.532,0,0,1-7.65-1.885,1,1,0,0,0-1.36.438L23.99,4.784A6.729,6.729,0,0,0,26,13.213V16a5.969,5.969,0,0,0,1.54,4h-1.3L20.5,17.132a1,1,0,0,0-1.487,1.027V23.2l-4.839-3.024a7.013,7.013,0,0,1-2.293-2.335L8.119,11.567a1.248,1.248,0,0,1,2.129-1.3l3.917,6.266a.989.989,0,0,0,.477.4l1.8.719a1,1,0,1,0,.743-1.856l-1.495-.6L11.943,9.2A3.248,3.248,0,0,0,6.4,12.6l3.762,6.269a9.043,9.043,0,0,0,2.947,3l6.262,3.914.025.019,3.654,2.741.9,8.124-6.041,6.711a5.972,5.972,0,0,0-.455,7.454l3.671,5.245A5.008,5.008,0,0,0,17,61a1,1,0,0,0,1,1H29a1,1,0,0,0,1-1V58a1,1,0,0,0-2,0v2H19.171A3.006,3.006,0,0,1,22,58h1a1,1,0,0,0,.444-.112ZM34,22a2,2,0,0,1-4,0v-.35a5.889,5.889,0,0,0,4,0Zm2-6a4,4,0,0,1-8,0V11.535l2.016-1.344A12.842,12.842,0,0,0,36,11.986ZM25.368,8.743a4.791,4.791,0,0,1,.411-3.064l.672-1.345A18.559,18.559,0,0,0,34.115,6H35.5A3.5,3.5,0,0,1,39,9.5a3.469,3.469,0,0,1-1,2.428V11a1,1,0,0,0-1-1h-.4a10.867,10.867,0,0,1-6.05-1.832,1,1,0,0,0-1.11,0l-3,2a.99.99,0,0,0-.317.346A4.715,4.715,0,0,1,25.368,8.743Zm22.921,40.6L50.3,48H52v8.829A3.006,3.006,0,0,1,50,54V53a.978.978,0,0,0-.115-.443Z"/><path d="M15,28H7a1,1,0,0,0-1,1v5.184A2.966,2.966,0,0,0,5,34a3,3,0,1,0,3,3V34h6v3.184A2.966,2.966,0,0,0,13,37a3,3,0,1,0,3,3V29A1,1,0,0,0,15,28ZM5,38a1,1,0,1,1,1-1A1,1,0,0,1,5,38Zm3-8h6v2H8Zm5,11a1,1,0,1,1,1-1A1,1,0,0,1,13,41Z"/><path d="M59.964,26.474l-5.2,3a3,3,0,0,0-1.1,4.1l1,1.732L56.26,38.06A2.99,2.99,0,1,0,59.4,39.5v0L56.9,35.17l2.6-1.5a5.006,5.006,0,0,0,1.831-6.83A1,1,0,0,0,59.964,26.474ZM57.77,41.259a1,1,0,1,1-.1-.76h0A1,1,0,0,1,57.77,41.259Zm.729-9.321-2.6,1.5-.5-.866a1,1,0,0,1,.367-1.366l4.181-2.414A3,3,0,0,1,58.5,31.938Z"/><path d="M16.475,8.957h1v1a1,1,0,0,0,2,0v-1h1a1,1,0,0,0,0-2h-1v-1a1,1,0,0,0-2,0v1h-1a1,1,0,0,0,0,2Z"/><path d="M8,49H7V48a1,1,0,0,0-2,0v1H4a1,1,0,0,0,0,2H5v1a1,1,0,0,0,2,0V51H8a1,1,0,0,0,0-2Z"/><path d="M46,42a1,1,0,0,0,1-1V40h1a1,1,0,0,0,0-2H47V37a1,1,0,0,0-2,0v1H44a1,1,0,0,0,0,2h1v1A1,1,0,0,0,46,42Z"/><path d="M59,15a3,3,0,1,0-3-3A3,3,0,0,0,59,15Zm0-4a1,1,0,1,1-1,1A1,1,0,0,1,59,11Z"/><circle cx="4" cy="3" r="1"/><circle cx="5.474" cy="18.956" r="1"/><circle cx="49" cy="30.34" r="1"/><circle cx="49" cy="4" r="1"/></g></svg>
