<svg height="512pt" viewBox="0 -37 512.00029 512" width="512pt" xmlns="http://www.w3.org/2000/svg"><path d="m361.832031 363c-.457031 0-.914062-.019531-1.371093-.0625h-.003907c-.457031-.042969-.914062-.105469-1.367187-.1875-85.429688-15.71875-147.433594-90.171875-147.433594-177.035156v-144.667969c0-4.984375 2.457031-9.648437 6.570312-12.46875 1.699219-1.167969 42.839844-28.578125 143.605469-28.578125 100.761719 0 141.898438 27.414062 143.601563 28.578125 4.109375 2.820313 6.566406 7.484375 6.566406 12.46875v144.667969c0 86.863281-62.003906 161.320312-147.433594 177.039062-.902344.164063-1.816406.246094-2.734375.246094zm0 0" fill="#ff808c"/><path d="m505.433594 28.578125c-1.703125-1.164063-42.839844-28.578125-143.601563-28.578125h-.003906v363h.003906c.917969 0 1.832031-.082031 2.734375-.25 85.429688-15.714844 147.433594-90.171875 147.433594-177.035156v-144.667969c0-4.984375-2.457031-9.648437-6.566406-12.46875zm0 0" fill="#f93d47"/><path d="m420.222656 154.703125c-12.359375 0-23.976562-4.808594-32.714844-13.546875-5.902343-5.90625-5.902343-15.476562 0-21.382812 5.90625-5.902344 15.476563-5.902344 21.382813 0 3.027344 3.027343 7.050781 4.695312 11.332031 4.695312 4.277344 0 8.300782-1.667969 11.328125-4.695312 5.90625-5.902344 15.476563-5.902344 21.382813 0 5.902344 5.90625 5.902344 15.476562 0 21.382812-8.738282 8.738281-20.355469 13.546875-32.710938 13.546875zm0 0" fill="#15283b"/><path d="m309.882812 154.703125c-12.359374 0-23.976562-4.808594-32.714843-13.546875-5.902344-5.90625-5.902344-15.476562 0-21.382812 5.90625-5.902344 15.476562-5.902344 21.382812 0 3.027344 3.027343 7.050781 4.695312 11.328125 4.695312 4.28125 0 8.304688-1.667969 11.332032-4.695312 5.902343-5.902344 15.476562-5.902344 21.378906 0 5.90625 5.90625 5.90625 15.476562 0 21.382812-8.734375 8.738281-20.351563 13.546875-32.707032 13.546875zm0 0" fill="#13496b"/><path d="m411.941406 259.964844c-3.871094 0-7.742187-1.472656-10.691406-4.425782-21.738281-21.738281-57.105469-21.738281-78.84375 0-5.902344 5.902344-15.476562 5.902344-21.378906 0-5.90625-5.90625-5.90625-15.476562 0-21.382812 33.523437-33.527344 88.078125-33.523438 121.601562 0 5.90625 5.90625 5.90625 15.476562 0 21.382812-2.949218 2.949219-6.820312 4.425782-10.6875 4.425782zm0 0" fill="#13496b"/><path d="m401.25 255.539062c2.953125 2.949219 6.820312 4.425782 10.691406 4.425782 3.867188 0 7.738282-1.472656 10.6875-4.425782 5.90625-5.90625 5.90625-15.476562 0-21.382812-16.761718-16.761719-38.78125-25.144531-60.800781-25.144531v30.222656c14.277344 0 28.554687 5.433594 39.421875 16.304687zm0 0" fill="#15283b"/><path d="m334.785156 206.957031-61.449218-130.972656c-2.117188-4.511719-6.320313-7.691406-11.238282-8.496094-2.039062-.335937-50.921875-7.679687-142.144531 35.117188-91.222656 42.800781-116.824219 85.089843-117.871094 86.867187-2.523437 4.300782-2.769531 9.566406-.652343 14.082032l61.449218 130.96875c30.203125 64.378906 94.492188 103.574218 162.914063 103.574218 15.15625 0 30.519531-1.921875 45.753906-5.921875.046875-.011719.09375-.023437.140625-.039062h.003906c1.726563-.472657 3.359375-1.246094 4.8125-2.285157 70.664063-50.515624 95.175782-144.257812 58.28125-222.894531zm0 0" fill="#bdf052"/><path d="m334.785156 206.957031-61.449218-130.972656c-2.117188-4.511719-6.320313-7.691406-11.238282-8.496094-2.039062-.335937-50.921875-7.679687-142.144531 35.117188l156.550781 327.246093c70.664063-50.515624 95.175782-144.257812 58.28125-222.894531zm0 0" fill="#73df6e"/><path d="m112.988281 277.042969c-1.703125 0-3.4375-.292969-5.136719-.90625-7.851562-2.835938-11.917968-11.5-9.082031-19.351563 4.199219-11.625 12.671875-20.914062 23.859375-26.164062s23.75-5.824219 35.371094-1.625c7.851562 2.835937 11.917969 11.5 9.082031 19.355468-2.839843 7.851563-11.503906 11.914063-19.359375 9.078126-4.023437-1.453126-8.375-1.253907-12.25.566406-3.875 1.816406-6.808594 5.035156-8.265625 9.0625-2.222656 6.152344-8.03125 9.984375-14.21875 9.984375zm0 0" fill="#13496b"/><path d="m212.878906 230.175781c-1.703125 0-3.4375-.289062-5.136718-.902343-7.851563-2.835938-11.917969-11.503907-9.078126-19.355469 8.667969-23.992188 35.238282-36.453125 59.226563-27.789063 7.851563 2.839844 11.917969 11.503906 9.082031 19.355469-2.839844 7.855469-11.503906 11.921875-19.355468 9.082031-4.027344-1.453125-8.378907-1.253906-12.253907.5625-3.875 1.820313-6.808593 5.039063-8.265625 9.066406-2.222656 6.152344-8.027344 9.980469-14.21875 9.980469zm0 0" fill="#15283b"/><path d="m193.402344 345.335938c-9.683594 0-19.519532-1.648438-29.136719-5.121094-7.851563-2.839844-11.917969-11.503906-9.082031-19.355469 2.839844-7.855469 11.5-11.921875 19.355468-9.082031 28.910157 10.441406 60.933594-4.578125 71.378907-33.488282 2.839843-7.855468 11.507812-11.921874 19.359375-9.082031 7.851562 2.835938 11.917968 11.503907 9.078125 19.355469-12.636719 34.972656-45.75 56.773438-80.953125 56.773438zm0 0" fill="#13496b"/><path d="m265.273438 269.207031c-7.851563-2.835937-16.519532 1.226563-19.355469 9.082031-5.011719 13.871094-15 24.53125-27.21875 30.730469l13.046875 27.273438c19.136718-9.511719 34.792968-26.097657 42.609375-47.730469 2.835937-7.851562-1.226563-16.515625-9.082031-19.355469zm0 0" fill="#15283b"/></svg>