<svg height="512pt" viewBox="-34 0 512 512.001" width="512pt" xmlns="http://www.w3.org/2000/svg"><path d="m351.382812 131.566406-18.03125-6.984375c-4.398437 4.859375-9.148437 10.054688-13.699218 15.007813-11.382813 12.378906-30.917969 12.378906-42.300782.003906-4.46875-4.863281-9.128906-9.957031-13.457031-14.742188l-18.289062 7.089844c-14.484375 5.617188-24.027344 19.550782-24.027344 35.085938v16.152344c0 3.664062 2.96875 6.636718 6.636719 6.636718h140.574218c3.664063 0 6.636719-2.972656 6.636719-6.636718v-16.523438c-.003906-15.539062-9.554687-29.480469-24.042969-35.089844zm0 0" fill="#f25c5c"/><path d="m309.121094 146.839844c-10.6875 4.242187-23.421875 1.832031-31.769532-7.25-4.46875-4.859375-9.128906-9.953125-13.457031-14.738282l-18.289062 7.089844c-14.484375 5.613282-24.027344 19.550782-24.027344 35.085938v16.148437c0 3.667969 2.96875 6.636719 6.636719 6.636719h104.351562c-2.300781-16.757812-10.792968-32.085938-23.445312-42.972656zm0 0" fill="#e54a4a"/><path d="m323.742188 120.859375c-1.746094-.675781-2.898438-2.355469-2.898438-4.226563v-16.914062c-6.199219 4.273438-13.703125 6.785156-21.785156 6.785156-8.460938 0-15.894532-2.324218-21.976563-6.207031v16.335937c0 1.871094-1.148437 3.550782-2.894531 4.226563l-11.410156 4.425781c4.628906 5.125 9.722656 10.695313 14.574218 15.972656 11.382813 12.375 30.914063 12.375 42.296876-.003906 4.9375-5.367187 10.125-11.039062 14.816406-16.238281zm0 0" fill="#f0a479"/><path d="m308.917969 146.679688c-2.355469-2.007813-3.671875-4.980469-3.671875-8.078126v-32.597656c-2.015625.324219-4.082032.5-6.191406.5-8.457032 0-15.890626-2.320312-21.972657-6.207031v16.339844c0 1.871093-1.152343 3.546875-2.894531 4.226562l-4.453125 1.726563-6.957031 2.695312c13.710937 15.183594 22.632812 29.222656 42.46875 24.449219v-.023437c1.75-.421876 3.476562-.988282 5.136718-1.742188-.476562-.4375-.96875-.867188-1.464843-1.289062zm0 0" fill="#e5966e"/><path d="m298.5 0c-.15625 0-.308594 0-.464844.00390625-21.414062.18359375-38.5625 17.85937475-38.5625 39.26953175v17.363281c0-2.078125 1.773438-3.714844 3.824219-3.558594 20.246094 1.453125 40.851563-4.980469 56.429687-15.15625 1.457032-.949219 3.382813-.710937 4.566407.5625 13.316406 14.3125 13.234375 13.757813 13.234375 15.625v-14.832031c0-21.414063-17.148438-39.085938-38.5625-39.27343775-.15625-.00390625-.308594-.00390625-.464844-.00390625zm0 0" fill="#5e6377"/><path d="m288.613281 39.277344c0-16.425782 10.09375-30.640625 24.457031-36.460938-4.363281-1.765625-9.113281-2.769531-14.105468-2.81249975-.15625-.00390625-.308594-.00390625-.464844-.00390625s-.308594 0-.464844.00390625c-21.414062.18359375-38.5625 17.85937475-38.5625 39.26953175v17.363281c0-2.078125 1.773438-3.714844 3.824219-3.558594 8.511719.609375 17.078125-.183594 25.316406-2.054687zm0 0" fill="#52586d"/><path d="m324.289062 37.644531c-1.179687-1.269531-3.109374-1.507812-4.5625-.554687-15.578124 10.175781-36.183593 16.609375-56.429687 15.15625-2.050781-.15625-3.824219 1.480468-3.824219 3.554687v13.898438c0 20.105469 15.753906 38.472656 39.585938 38.472656 21.210937 0 38.46875-17.261719 38.46875-38.472656v-16.421875c0-1.871094.082031-1.316406-13.238282-15.632813zm0 0" fill="#f7b594"/><path d="m288.613281 69.699219v-19.507813c-8.238281 1.867188-16.804687 2.664063-25.316406 2.054688-2.050781-.15625-3.824219 1.480468-3.824219 3.554687v13.898438c0 20.105469 15.753906 38.472656 39.585938 38.472656 4.988281 0 9.75-.96875 14.132812-2.703125-15.210937-5.8125-24.578125-20.269531-24.578125-35.769531zm0 0" fill="#f0a479"/><path d="m191.171875 131.566406-18.03125-6.984375c-4.398437 4.859375-9.148437 10.054688-13.703125 15.007813-11.382812 12.378906-30.914062 12.378906-42.296875.003906-4.472656-4.863281-9.128906-9.957031-13.460937-14.742188l-18.285157 7.089844c-14.484375 5.617188-20.117187 19.550782-20.117187 35.085938v16.152344c0 3.664062 2.972656 6.636718 6.636718 6.636718h136.664063c3.664063 0 6.632813-2.972656 6.632813-6.636718v-16.523438c0-15.539062-9.550782-29.480469-24.039063-35.089844zm0 0" fill="#ffc850"/><path d="m84.882812 183.175781v-28.734375c0-10.164062 4.085938-19.640625 10.96875-26.554687l-10.457031 4.054687c-14.484375 5.617188-20.117187 19.550782-20.117187 35.085938v16.152344c0 3.664062 2.972656 6.636718 6.636718 6.636718h19.605469c-3.664062-.003906-6.636719-2.972656-6.636719-6.640625zm0 0" fill="#feb644"/><path d="m163.527344 120.859375c-1.746094-.675781-2.894532-2.355469-2.894532-4.226563v-16.914062c-6.199218 4.273438-13.703124 6.785156-21.789062 6.785156-8.457031 0-15.890625-2.324218-21.972656-6.207031v16.335937c0 1.871094-1.152344 3.550782-2.894532 4.226563l-11.410156 4.425781c4.628906 5.125 9.71875 10.695313 14.570313 15.972656 11.382812 12.375 30.917969 12.375 42.300781-.003906 4.9375-5.367187 10.121094-11.039062 14.816406-16.238281zm0 0" fill="#f0a479"/><path d="m145.035156 106c-2.015625.328125-4.082031.503906-6.191406.503906-8.457031 0-15.890625-2.324218-21.972656-6.207031v16.335937c0 1.871094-1.152344 3.550782-2.894532 4.226563l-11.410156 4.421875c4.628906 5.128906 9.71875 10.699219 14.570313 15.972656 7.363281 8.003906 18.128906 10.824219 27.898437 8.476563zm0 0" fill="#e5966e"/><path d="m138.289062 0c-.15625 0-.3125 0-.464843.00390625-21.414063.18359375-38.5625 17.85937475-38.5625 39.26953175v17.363281c0-2.078125 1.773437-3.714844 3.824219-3.558594 20.246093 1.453125 40.851562-4.980469 56.429687-15.15625 1.453125-.949219 3.382813-.710937 4.566406.5625 13.3125 14.3125 13.234375 13.757813 13.234375 15.625v-14.832031c0-21.414063-17.148437-39.085938-38.5625-39.27343775-.15625-.00390625-.308594-.00390625-.464844-.00390625zm0 0" fill="#5e6377"/><path d="m128.402344 39.277344c0-16.425782 10.09375-30.640625 24.457031-36.460938-4.363281-1.765625-9.117187-2.769531-14.105469-2.81249975-.15625-.00390625-.308594-.00390625-.464844-.00390625s-.3125 0-.464843.00390625c-21.414063.18359375-38.5625 17.85937475-38.5625 39.26953175v17.363281c0-2.078125 1.769531-3.714844 3.824219-3.558594 8.507812.609375 17.078124-.183594 25.316406-2.054687zm0 0" fill="#52586d"/><path d="m164.078125 37.644531c-1.183594-1.269531-3.109375-1.507812-4.5625-.554687-15.578125 10.175781-36.183594 16.609375-56.429687 15.15625-2.050782-.15625-3.824219 1.480468-3.824219 3.554687v13.898438c0 20.105469 15.753906 38.472656 39.582031 38.472656 21.214844 0 38.472656-17.261719 38.472656-38.472656v-16.421875c0-1.871094.082032-1.316406-13.238281-15.632813zm0 0" fill="#f7b594"/><path d="m128.402344 69.699219v-19.507813c-8.238282 1.867188-16.808594 2.664063-25.316406 2.054688-2.054688-.15625-3.824219 1.480468-3.824219 3.554687v13.898438c0 20.105469 15.753906 38.472656 39.582031 38.472656 4.992188 0 9.753906-.96875 14.132812-2.703125-15.207031-5.8125-24.574218-20.269531-24.574218-35.769531zm0 0" fill="#f0a479"/><path d="m280.515625 157.761719-21.179687-8.203125c-5.167969 5.710937-10.746094 11.8125-16.097657 17.628906-13.371093 14.542969-36.316406 14.542969-49.6875.003906-5.25-5.710937-10.722656-11.695312-15.808593-17.316406l-21.484376 8.328125c-17.011718 6.597656-28.226562 22.96875-28.226562 41.214844v18.972656c0 4.304687 3.492188 7.796875 7.796875 7.796875h165.132813c4.304687 0 7.792968-3.492188 7.792968-7.796875v-19.40625c.003906-18.253906-11.214844-34.632813-28.238281-41.222656zm0 0" fill="#00aaf0"/><path d="m155.660156 218.390625v-33.757813c0-11.9375 4.800782-23.070312 12.882813-31.191406l-12.285157 4.761719c-17.011718 6.597656-28.226562 22.96875-28.226562 41.214844v18.972656c0 4.304687 3.492188 7.796875 7.796875 7.796875h27.628906c-4.304687 0-7.796875-3.492188-7.796875-7.796875zm0 0" fill="#059adb"/><path d="m248.042969 145.1875c-2.050781-.796875-3.402344-2.769531-3.402344-4.96875v-19.867188c-7.28125 5.019532-16.097656 7.972657-25.59375 7.972657-9.9375 0-18.667969-2.730469-25.8125-7.292969v19.191406c0 2.199219-1.351563 4.167969-3.398437 4.964844l-13.40625 5.195312c5.441406 6.023438 11.421874 12.566407 17.121093 18.761719 13.371094 14.542969 36.316407 14.539063 49.6875 0 5.800781-6.304687 11.890625-12.96875 17.40625-19.078125zm0 0" fill="#f0a479"/><path d="m226.320312 127.730469c-2.367187.386719-4.796874.589843-7.269531.589843-9.9375 0-18.671875-2.726562-25.816406-7.292968v19.195312c0 2.195313-1.347656 4.167969-3.398437 4.964844l-13.40625 5.195312c5.441406 6.023438 11.421874 12.5625 17.121093 18.761719 8.648438 9.402344 21.292969 12.714844 32.769531 9.957031zm0 0" fill="#e5966e"/><path d="m218.394531 3.210938c-.183593 0-.363281.003906-.546875.003906-25.152344.21875-45.296875 20.980468-45.296875 46.132812v20.394532c0-2.4375 2.078125-4.363282 4.492188-4.179688 23.78125 1.707031 47.988281-5.847656 66.289062-17.804688 1.707031-1.113281 3.972657-.835937 5.363281.660157 15.640626 16.8125 15.546876 16.160156 15.546876 18.355469v-17.425782c0-25.152344-20.148438-45.914062-45.300782-46.132812-.183594 0-.363281-.003906-.546875-.003906zm0 0" fill="#5e6377"/><path d="m206.777344 49.347656c0-19.292968 11.859375-35.988281 28.730468-42.828125-5.125-2.074219-10.707031-3.253906-16.566406-3.304687-.183594 0-.367187 0-.550781 0-.179687 0-.363281 0-.542969 0-25.152344.21875-45.300781 20.980468-45.300781 46.136718v20.390626c0-2.4375 2.082031-4.359376 4.496094-4.179688 9.996093.71875 20.058593-.214844 29.734375-2.410156zm0 0" fill="#52586d"/><path d="m248.6875 47.433594c-1.386719-1.492188-3.648438-1.769532-5.359375-.652344-18.296875 11.953125-42.503906 19.511719-66.285156 17.804688-2.414063-.183594-4.492188 1.742187-4.492188 4.179687v16.324219c0 23.617187 18.503907 45.1875 46.496094 45.1875 24.917969 0 45.191406-20.269532 45.191406-45.1875v-19.292969c0-2.195313.097657-1.546875-15.550781-18.363281zm0 0" fill="#f7b594"/><path d="m206.777344 85.089844v-22.917969c-9.675782 2.195313-19.738282 3.132813-29.734375 2.414063-2.414063-.183594-4.492188 1.742187-4.492188 4.179687v16.324219c0 23.617187 18.503907 45.191406 46.496094 45.191406 5.863281 0 11.457031-1.132812 16.601563-3.175781-17.863282-6.828125-28.871094-23.808594-28.871094-42.015625zm0 0" fill="#f0a479"/><path d="m391.660156 224.449219c.816406 2.203125.996094 4.554687.554688 6.824219l5.71875-6.308594c2.179687-2.402344 3.378906-5.476563 3.378906-8.660156v-71.429688c0-4.359375 1.292969-8.429688 3.527344-11.878906-6.210938-5.476563-15.285156-7.558594-23.785156-4.664063-12.234376 4.164063-18.632813 17.058594-14.289063 28.796875zm0 0" fill="#f0a479"/><path d="m391.050781 157.128906c-3.800781-10.277344.632813-21.4375 10.003907-26.851562-5.816407-3.363282-13.097657-4.292969-19.996094-1.945313-12.234375 4.167969-18.636719 17.058594-14.292969 28.800781l24.894531 67.316407c.816406 2.203125.996094 4.558593.554688 6.824219l5.71875-6.308594c2.179687-2.398438 3.378906-5.476563 3.378906-8.660156v-31.429688zm0 0" fill="#e5966e"/><path d="m377.578125 329.308594 53.097656-73.054688c9.277344-12.429687 14.289063-27.523437 14.289063-43.03125v-67.839844c0-12.644531-10.347656-23.296874-22.988282-23.058593-12.257812.230469-22.117187 10.238281-22.117187 22.550781v71.429688c0 3.183593-1.152344 6.257812-3.242187 8.660156l-25.8125 29.667968c-.601563.691407-1.746094.066407-1.457032-.808593 2.945313-8.953125.636719-19.191407-6.730468-25.996094-9.808594-9.054687-25.75-8.253906-35.03125 1.339844l-70.144532 72.515625c-7.976562 8.242187-12.433594 19.261718-12.433594 30.730468v70.425782h106.269532c1.945312-25.777344 11.019531-52.511719 26.300781-73.53125zm0 0" fill="#f7b594"/><g fill="#f0a479"><path d="m273.867188 402.839844v-70.425782c0-11.46875 4.457031-22.488281 12.429687-30.730468l70.144531-72.515625c1.179688-1.21875 2.46875-2.292969 3.835938-3.226563-9.855469-6.988281-24.117188-5.636718-32.691406 3.226563l-70.144532 72.515625c-7.972656 8.242187-12.429687 19.261718-12.429687 30.730468v70.425782h106.265625zm0 0"/><path d="m310.324219 302.925781c0 1.796875.71875 3.589844 2.144531 4.902344 2.703125 2.503906 6.929688 2.339844 9.429688-.367187l48.691406-52.652344c-.621094.371094-1.496094-.207032-1.242188-.984375 1.804688-5.488281 1.625-11.457031-.472656-16.824219l-56.777344 61.398438c-1.1875 1.28125-1.773437 2.90625-1.773437 4.527343zm0 0"/><path d="m53.304688 224.449219c-.8125 2.203125-.992188 4.554687-.550782 6.824219l-5.722656-6.308594c-2.179688-2.402344-3.375-5.476563-3.375-8.660156v-71.429688c0-4.359375-1.292969-8.429688-3.527344-11.878906 6.207032-5.476563 15.28125-7.558594 23.78125-4.664063 12.234375 4.164063 18.632813 17.058594 14.292969 28.796875zm0 0"/></g><path d="m63.910156 128.332031c-8.5-2.894531-17.574218-.8125-23.78125 4.664063 2.230469 3.449218 3.523438 7.519531 3.523438 11.878906v71.429688c0 3.183593 1.199218 6.257812 3.378906 8.660156l5.71875 6.308594c-.4375-2.269532-.257812-4.625.554688-6.824219l10.066406-27.21875v-52.355469c0-2.480469-.417969-4.867188-1.191406-7.097656-1.167969-3.382813.410156-7.167969 3.675781-8.625.023437-.011719.042969-.019532.066406-.03125-.652344-.285156-1.324219-.554688-2.011719-.789063zm0 0" fill="#e5966e"/><path d="m67.390625 329.308594-53.101563-73.054688c-9.277343-12.429687-14.289062-27.523437-14.289062-43.03125v-67.839844c0-12.644531 10.347656-23.296874 22.992188-23.058593 12.253906.230469 22.117187 10.238281 22.117187 22.550781v71.429688c0 3.183593 1.152344 6.257812 3.238281 8.660156l25.816406 29.667968c.601563.691407 1.742188.066407 1.457032-.808593-2.949219-8.953125-.636719-19.191407 6.730468-25.996094 9.804688-9.054687 25.75-8.253906 35.03125 1.339844l70.144532 72.515625c7.972656 8.242187 12.429687 19.261718 12.429687 30.730468v70.425782h-106.265625c-1.949218-25.777344-11.019531-52.511719-26.300781-73.53125zm0 0" fill="#f7b594"/><path d="m96.246094 329.308594-53.101563-73.054688c-9.277343-12.429687-14.289062-27.523437-14.289062-43.03125v-67.839844c0-7.046874 3.21875-13.472656 8.25-17.742187-3.824219-3.230469-8.738281-5.214844-14.113281-5.316406-12.644532-.238281-22.992188 10.414062-22.992188 23.058593v67.839844c0 15.507813 5.011719 30.601563 14.289062 43.03125l53.101563 73.054688c15.28125 21.019531 24.351563 47.753906 26.300781 73.53125h28.855469c-1.949219-25.777344-11.019531-52.511719-26.300781-73.53125zm0 0" fill="#f0a479"/><path d="m134.640625 302.925781c0 1.796875-.71875 3.589844-2.140625 4.902344-2.707031 2.503906-6.929688 2.339844-9.429688-.367187l-48.691406-52.652344c.621094.371094 1.496094-.207032 1.242188-.984375-1.808594-5.488281-1.628906-11.457031.46875-16.824219l56.777344 61.398438c1.1875 1.28125 1.773437 2.90625 1.773437 4.527343zm0 0" fill="#f0a479"/><path d="m222.503906 436.945312v64.871094c0 5.625-4.558594 10.183594-10.183594 10.183594h-128.980468c-5.625 0-10.183594-4.558594-10.183594-10.183594v-64.871094zm0 0" fill="#00aaf0"/><path d="m102.015625 501.816406v-64.871094h-28.855469v64.871094c0 5.625 4.558594 10.183594 10.179688 10.183594h28.859375c-5.625 0-10.183594-4.558594-10.183594-10.183594zm0 0" fill="#059adb"/><path d="m83.339844 400.917969h128.980468c5.625 0 10.183594 4.558593 10.183594 10.183593v27.769532h-149.34375v-27.769532c0-5.625 4.558594-10.183593 10.179688-10.183593zm0 0" fill="#e4eaf8"/><path d="m112.195312 400.917969h-28.855468c-5.625 0-10.183594 4.558593-10.183594 10.183593v27.769532h28.855469v-27.769532c.003906-5.625 4.5625-10.183593 10.183593-10.183593zm0 0" fill="#d8dce5"/><path d="m371.808594 436.945312v64.871094c0 5.625-4.558594 10.183594-10.183594 10.183594h-128.980469c-5.621093 0-10.183593-4.558594-10.183593-10.183594v-64.871094zm0 0" fill="#00aaf0"/><path d="m251.320312 501.816406v-64.871094h-28.855468v64.871094c0 5.625 4.558594 10.183594 10.183594 10.183594h28.855468c-5.625 0-10.183594-4.558594-10.183594-10.183594zm0 0" fill="#059adb"/><path d="m232.648438 400.917969h128.976562c5.625 0 10.183594 4.558593 10.183594 10.183593v27.769532h-149.34375v-27.769532c0-5.625 4.558594-10.183593 10.183594-10.183593zm0 0" fill="#e4eaf8"/><path d="m261.5 400.917969h-28.855469c-5.621093 0-10.183593 4.558593-10.183593 10.183593v27.769532h28.859374v-27.769532c0-5.625 4.558594-10.183593 10.179688-10.183593zm0 0" fill="#d8dce5"/></svg>