<svg id="svg8" height="512" viewBox="0 0 16.933333 16.933334" width="512" xmlns="http://www.w3.org/2000/svg" xmlns:svg="http://www.w3.org/2000/svg"><g id="layer6"><path id="path833" d="m9.5976563 1.6425781c-1.4942524-.1917623-3.0097604.1139228-4.3144532.8671875-3.2875378 1.8980609-4.41563913 6.1089461-2.5175781 9.3964844 1.898061 3.287537 6.108947 4.415639 9.396484 2.517578 1.305043-.753467 2.325823-1.914985 2.90625-3.304687.101159-.24667-.184724-.471193-.40039-.314453-.146197.107199-.296788.20466-.453125.294921-2.407128 1.389757-5.4774316.567284-6.8671878-1.8398434-1.389756-2.407128-.5672843-5.4774317 1.8398438-6.8671875.1565711-.0903963.3189209-.1710699.484375-.2441406.248787-.1072003.1948767-.4746418-.0742187-.5058594zm-.9697882.4749093c-2.4552763 1.6408478-3.202712 4.8730197-1.7391962 7.4079032 1.4629311 2.5338704 4.6280691 3.5027044 7.2846341 2.1977014-.540587.913127-1.336127 1.701722-2.274868 2.243705-3.0398686 1.755069-6.9207128.715649-8.6757817-2.324219-1.7550692-3.0398689-.7156498-6.9207122 2.3242187-8.6757811.9392991-.5423046 2.0065229-.8318398 3.0809931-.8493095z" stroke-linecap="round" stroke-linejoin="round"/></g></svg>