<svg id="Bahan_copy" viewBox="0 0 64 64" xmlns="http://www.w3.org/2000/svg" data-name="Bahan copy"><g fill="rgb(0,0,0)"><path d="m38.38184 46.26318-2.27051-.08642a1.14731 1.14731 0 0 1 -1.19333-1.11427v-18.1621c0-1.82959-1.60938-3.37939-3.82617-3.68457-1.12087-.30506-4.71917 1.42336-5.9014 1.75578a1.401 1.401 0 0 0 .43027 2.70808l1.87591.06788a1.19176 1.19176 0 0 1 1.23972 1.12744v18.26758c0 1.791 1.57275 3.30371 3.74023 3.59717 1.02937.29815 5.14033-1.4641 6.29789-1.75627a1.40077 1.40077 0 0 0 -.39261-2.7203zm-5.03321 2.43116c-1.14469.3237-2.67284-.67344-2.61227-1.55175v-18.26759a3.11848 3.11848 0 0 0 -2.26417-2.97557c.44721-.12055 1.883-.81639 2.34716-.70219 1.19631.16458 2.09865.897 2.09865 1.70315v18.16211a3.11092 3.11092 0 0 0 2.331 2.99412z"/><path d="m32 21.436a4.10246 4.10246 0 0 0 -.00009-8.2046 4.10246 4.10246 0 0 0 .00009 8.2046zm0-6.20459a2.10251 2.10251 0 0 1 -.00009 4.20458 2.10251 2.10251 0 0 1 .00009-4.20454z"/><path d="m32 4a28.03146 28.03146 0 0 0 -28 28c1.53775 37.14587 54.46791 37.13506 56.00005-.00021a28.03149 28.03149 0 0 0 -28.00005-27.99979zm0 54a26.02947 26.02947 0 0 1 -26-26c1.4282-34.49259 50.57736-34.48253 52.00005.0002a26.02919 26.02919 0 0 1 -26.00005 25.9998z"/></g></svg>