<svg id="Layer_1" enable-background="new 0 0 32 32" height="512" viewBox="0 0 32 32" width="512" xmlns="http://www.w3.org/2000/svg"><path d="m16 8.67c.276 0 .5-.224.5-.5v-2.95c0-.276-.224-.5-.5-.5s-.5.224-.5.5v2.95c0 .276.224.5.5.5z"/><path d="m16 23.33c-.276 0-.5.224-.5.5v2.95c0 .276.224.5.5.5s.5-.224.5-.5v-2.95c0-.276-.224-.5-.5-.5z"/><path d="m10.11 10.817c.098.098.226.146.354.146s.256-.049.354-.146c.195-.195.195-.512 0-.707l-2.088-2.087c-.195-.195-.512-.195-.707 0s-.195.512 0 .707z"/><path d="m21.891 21.183c-.195-.195-.512-.195-.707 0s-.195.512 0 .707l2.086 2.086c.098.098.226.146.354.146s.256-.049.354-.146c.195-.195.195-.512 0-.707z"/><path d="m8.67 16c0-.276-.224-.5-.5-.5h-2.95c-.276 0-.5.224-.5.5s.224.5.5.5h2.95c.276 0 .5-.224.5-.5z"/><path d="m26.78 15.5h-2.95c-.276 0-.5.224-.5.5s.224.5.5.5h2.95c.276 0 .5-.224.5-.5s-.223-.5-.5-.5z"/><path d="m10.11 21.183-2.087 2.087c-.195.195-.195.512 0 .707.098.098.226.146.354.146s.256-.049.354-.146l2.086-2.086c.195-.195.195-.512 0-.707s-.512-.196-.707-.001z"/><path d="m21.537 10.963c.128 0 .256-.049.354-.146l2.086-2.086c.195-.195.195-.512 0-.707s-.512-.195-.707 0l-2.086 2.086c-.195.195-.195.512 0 .707.097.098.225.146.353.146z"/><g><path d="m16 21.537c-3.053 0-5.537-2.484-5.537-5.537s2.484-5.537 5.537-5.537 5.537 2.484 5.537 5.537-2.484 5.537-5.537 5.537zm0-10.074c-2.501 0-4.537 2.035-4.537 4.537s2.035 4.537 4.537 4.537 4.537-2.035 4.537-4.537c0-2.501-2.035-4.537-4.537-4.537z"/></g></svg>