<?xml version="1.0" encoding="UTF-8"?>
<svg xmlns="http://www.w3.org/2000/svg" id="Layer_3" data-name="Layer 3" viewBox="0 0 64 64" width="512" height="512"><path d="M51,47.142V43a5.9,5.9,0,0,0-4.726-5.765L30.556,34.091A37.409,37.409,0,0,0,1.2,20H1v2h.2A35.421,35.421,0,0,1,29.214,35.618a1,1,0,0,0,.59.362L43,38.62V40a5,5,0,0,0,5,5h1v2H43.937A12.983,12.983,0,0,0,21,49H1v2H20.363a12.92,12.92,0,0,0-.312,2H1v2H24.059a9,9,0,0,0,17.882,0H50a3.992,3.992,0,0,0,1-7.858ZM48,43a3,3,0,0,1-3-3V39.02l.881.176A3.891,3.891,0,0,1,49,43ZM33,43A11.01,11.01,0,0,1,43.949,53H41.941a9,9,0,0,0-17.882,0H22.051A11.01,11.01,0,0,1,33,43Zm0,18a7,7,0,1,1,7-7A7.008,7.008,0,0,1,33,61Zm17-8H45.949A12.9,12.9,0,0,0,45,49h5a2,2,0,0,1,0,4Z"/><path d="M25.9,35.433a1,1,0,0,0-.12-1.058A27.511,27.511,0,0,0,4.194,24H4a1,1,0,0,0-1,1V35a1,1,0,0,0,1,1H25A1,1,0,0,0,25.9,35.433ZM5,34V26.012A25.489,25.489,0,0,1,22.806,34Z"/><rect x="4" y="38" width="4" height="2"/><path d="M33,50a4,4,0,1,0,4,4A4,4,0,0,0,33,50Zm0,6a2,2,0,1,1,2-2A2,2,0,0,1,33,56Z"/><path d="M58,39.889a17.152,17.152,0,0,0-.1-1.883l-.68-6.116a3.908,3.908,0,0,0-2.926-3.348l-.738-.185,1.1-1.842a10.16,10.16,0,0,1,2.822-3.057l4.274-3.053a2.977,2.977,0,0,0-1.73-5.4h-.008a3.827,3.827,0,0,0-2.437.885l-3.832,3.188a13.419,13.419,0,0,0-2.578,2.867L48.845,25.43l-1.889-1.888.287-.072a6.321,6.321,0,0,0,3.733-2.631l2.276-3.414A4.442,4.442,0,0,0,54,14.954a2.954,2.954,0,0,0-5.412-1.639l-2.311,3.466a2.721,2.721,0,0,1-1.664,1.143,5.006,5.006,0,1,0-7.8,1.892L32.145,22.73l-1.816-1.815A3.093,3.093,0,0,0,28.124,20h0a3.121,3.121,0,0,0-2.256,5.278l2.587,3.352A3.539,3.539,0,0,0,31.237,30h0a3.515,3.515,0,0,0,1.949-.591l4.458-2.971A15.379,15.379,0,0,0,50.944,34h.161l.693,6.233a3.111,3.111,0,0,0,6.2-.344ZM40,13a3,3,0,1,1-3,3A3,3,0,0,1,40,13ZM54.889,41a1.11,1.11,0,0,1-1.1-.988l-.791-7.122A1,1,0,0,0,52,32H50.944A13.4,13.4,0,0,1,38.9,24.553a1,1,0,0,0-1.45-.385l-5.366,3.577a1.523,1.523,0,0,1-.841.255h0a1.529,1.529,0,0,1-1.2-.591l-2.622-3.4a1.1,1.1,0,0,0-.085-.1A1.121,1.121,0,0,1,28.122,22h0a1.114,1.114,0,0,1,.792.328l2.378,2.379a1,1,0,0,0,1.237.141l6.367-3.98A4.846,4.846,0,0,0,42.969,20H44a4.727,4.727,0,0,0,3.941-2.109l2.311-3.466A.954.954,0,0,1,52,14.954a2.45,2.45,0,0,1-.412,1.361L49.312,19.73a4.327,4.327,0,0,1-2.555,1.8l-2,.5a1,1,0,0,0-.464,1.677l4,4a1,1,0,0,0,1.539-.152l3-4.5a11.419,11.419,0,0,1,2.193-2.44l3.833-3.188a1.825,1.825,0,0,1,1.162-.422h0a.976.976,0,0,1,.977.977.982.982,0,0,1-.409.8l-4.274,3.053a12.156,12.156,0,0,0-3.375,3.654l-1.8,3a1,1,0,0,0,.615,1.485l2.047.512a1.9,1.9,0,0,1,1.424,1.628l.679,6.117A15.107,15.107,0,0,1,56,39.889,1.113,1.113,0,0,1,54.889,41Z"/><path d="M11.419,15.814l7,5,1.162-1.628L15.121,16H21a1,1,0,0,0,.949-.684l1.236-3.71,1.92,3.841,1.79-.894-3-6A1.014,1.014,0,0,0,22.929,8a1,1,0,0,0-.878.682L20.279,14H12a1,1,0,0,0-.581,1.814Z"/><path d="M31,4.851l2.219,2.774a1,1,0,0,0,1.228.27l5.841-2.921-1.237,3.71,1.9.632,2-6a1,1,0,0,0-1.4-1.211L34.276,5.744l-3.5-4.369A1,1,0,0,0,29,2v8h2Z"/><rect x="58.5" y="44.585" width="2" height="5.831" transform="translate(-11.843 74.082) rotate(-59.036)"/><rect x="56" y="48.86" width="2" height="7.28" transform="translate(-12.23 17.679) rotate(-15.945)"/></svg>
