<svg height="512pt" viewBox="-33 0 512 512.00192" width="512pt" xmlns="http://www.w3.org/2000/svg"><path d="m82.457031 130.835938c-8.960937-8.0625-22.132812-9.914063-33.097656-4.25-5.246094-4.863282-12.261719-7.84375-19.964844-7.84375-16.207031 0-29.394531 13.183593-29.394531 29.390624v66.347657c0 16.558593 5.457031 32.984375 15.304688 46.175781l51.542968 70.914062c12.390625 17.050782 20.339844 36.820313 23.242188 57.601563h-1.691406c-9.585938 0-17.382813 7.800781-17.382813 17.386719v88.058594c0 9.585937 7.796875 17.382812 17.382813 17.382812h125.199218c3.671875 0 7.074219-1.148438 9.882813-3.097656 2.8125 1.949218 6.214843 3.097656 9.886719 3.097656h125.199218c9.585938 0 17.382813-7.796875 17.382813-17.382812 0-9.496094 0-76.191407 0-88.058594 0-9.585938-7.796875-17.386719-17.382813-17.386719h-1.691406c2.902344-20.78125 10.851562-40.550781 23.242188-57.601563l51.488281-70.835937c9.902343-13.269531 15.359375-29.695313 15.359375-46.253906v-5.324219c0-4.144531-3.359375-7.503906-7.5-7.503906-4.144532 0-7.503906 3.359375-7.503906 7.503906v5.324219c0 13.34375-4.394532 26.585937-12.433594 37.355469l-51.546875 70.914062c-14.253907 19.613281-23.257813 42.445312-26.246094 66.421875h-88.867187v-58.996094c0-9.234375 3.539062-17.976562 9.957031-24.613281l68.433593-70.742188c6.261719-6.476562 16.398438-6.808593 23.070313-.75 5.824219 5.28125 7.113281 13.859376 3.191406 20.59375l-41.882812 45.914063c-2.792969 3.0625-2.574219 7.804687.484375 10.597656 3.0625 2.792969 7.804687 2.570313 10.597656-.488281l42.429688-46.511719c.019531-.019531.035156-.042969.058593-.066406.019531-.023437.039063-.042969.058594-.0625l28.925781-33.246094c3.238282-3.71875 4.988282-8.460937 4.988282-13.328125v-69.335937-.003907c.003906-7.882812 6.414062-14.390624 14.390624-14.390624 7.9375 0 14.394532 6.457031 14.394532 14.394531v26.019531c0 4.140625 3.355468 7.5 7.5 7.5 4.144531 0 7.5-3.359375 7.5-7.5v-26.019531c0-25.636719-30.652344-38.890625-49.359375-21.546875-12.25-6.332032-27.289063-3.269532-36.078125 7.355468-6.027344-4.507812-9.035156-5.261718-26.824219-12.152343l-8.425781-3.261719v-8.957031c9.882812-8.226563 16.183594-20.617188 16.183594-34.449219 0-3.679688 0-26.085938 0-29.519531 0-24.425781-19.566407-45.699219-45.878907-45.60156275-15.613281.13671875-29.808593 8.56640575-37.875 21.39062475-20.765625-24.335937-58.050781-24.390625-78.867187 0-24.457032-38.902343-83.753906-21.132812-83.753906 24.210938v29.519531c0 14.382812 6.613281 26.972656 17.085937 35.121094v8.285156c-28.195313 10.929688-27.285156 10.445312-30.714844 12.304688zm10.386719 11.664062 11.851562-4.59375c3.21875 3.542969 6.804688 7.464844 10.714844 11.714844 6.679688 7.261718 16.167969 11.429687 26.039063 11.429687.839843 0 1.679687-.042969 2.515625-.101562-7.75 5.882812-13.679688 13.917969-16.980469 23.203125h-44.121094l7.667969-21.613282c2.1875-6.160156 2.261719-12.992187.203125-19.121093.691406-.335938 1.394531-.640625 2.109375-.917969zm35.328125-24.519531c8.738281 2.578125 18.570313 2.691406 27.453125-.15625 0 2.988281-.070312 3.886719.3125 5.515625.863281 3.679687 3.433594 6.917968 7.503906 8.496094-7.21875 7.902343-11.515625 14.214843-21.992187 14.214843-5.769531 0-11.09375-2.339843-15-6.585937-2.375-2.582032-4.632813-5.042969-6.757813-7.371094 8.792969-3.410156 8.480469-10.148438 8.480469-14.113281zm116.960937-56.285157c6.261719 6.710938 9.503907 10.101563 11.140626 11.972657v16.433593c0 24.492188-23.84375 42.382813-48.667969 34.511719-15.445313-4.914062-25.332031-19.332031-25.332031-34.511719v-11.28125c21.238281.710938 43.976562-5.476562 62.859374-17.125zm66.140626 56.128907v2.832031c0 4.699219 2.800781 9.234375 7.816406 11.179688-7.210938 7.898437-11.515625 14.214843-21.992188 14.214843-10.433594 0-14.738281-6.277343-21.757812-13.957031 5.789062-2.242188 8.480468-6.65625 8.480468-11.4375v-2.675781c8.8125 2.601562 18.585938 2.6875 27.453126-.15625zm-59.023438 24.195312v-.976562l8.09375-3.136719c3.085938 3.394531 6.519531 7.152344 10.257812 11.21875zm-49.898438-3.292969c10.867188 3.578126 23.652344 3.773438 34.898438-.273437 0 4.324219-1.234375 13.363281 8.09375 16.976563l2.042969.792968c-9.457031 10.375-14.933594 18.558594-28.113281 18.554688-13.242188 0-18.648438-8.175782-27.839844-18.25 11.921875-4.625 10.917968-10.007813 10.917968-17.800782zm-135.257812 90.277344c.042969-.382812.121094-.757812.25-1.121094l10.195312-28.730468h46.558594c-.050781 1.292968-.039062.167968-.039062 20.34375 0 .980468.101562 1.941406.28125 2.871094-12-10.335938-29.816406-10.269532-41.785156.59375-4.15625 3.769531-7.167969 8.457031-8.839844 13.652343zm111.347656-91.363281 8.90625 3.453125v.925781c-2.363281.917969-17.730468 6.875-20.015625 7.761719 1.269531-1.359375 6.859375-7.460938 11.109375-12.140625zm90.375-19.109375-8.582031 3.328125c3.003906-3.804687 5.480469-8.042969 7.320313-12.601563.421874.351563.828124.71875 1.261718 1.058594zm-97.773437-9.324219c1.734375 4.300781 4.050781 8.410157 6.914062 12.164063l-7.332031-2.839844v-8.964844c.140625-.117187.277344-.238281.417969-.359375zm-94.648438 48.316407-11.191406 31.539062s0 .003906-.003906.003906l-6.410157 18.074219v-59.007813c0-3.25-.695312-7.003906-1.339843-8.773437 11.375-4.59375 23.117187 6.40625 18.945312 18.164063zm2.585938 165.226562-51.601563-70.988281c-7.980468-10.695313-12.378906-23.933594-12.378906-37.28125v-66.347657c0-7.933593 6.457031-14.390624 14.394531-14.390624 7.957031 0 14.386719 6.488281 14.390625 14.390624v69.339844c0 4.894532 1.773438 9.628906 4.988282 13.328125 49.207031 56.554688 13.15625 16.820313 71.507812 79.921875 2.8125 3.042969 7.558594 3.230469 10.597656.417969 3.042969-2.816406 3.226563-7.558594.417969-10.601563-38.921875-42.089843-30.71875-33.050781-41.886719-45.886718-3.773437-6.503906-2.765625-15.152344 3.226563-20.585938 6.671875-6.054687 16.808593-5.726562 23.070312.75l68.429688 70.742188c6.421875 6.636718 9.957031 15.382812 9.957031 24.617187v58.996094h-88.863281c-2.988281-23.976563-11.992188-46.808594-26.25-66.421875zm7.035156 83.804688c0-1.3125 1.066406-2.382813 2.382813-2.382813h125.199218c1.3125 0 2.382813 1.070313 2.382813 2.382813v19.457031h-129.964844zm127.582031 90.445312h-125.199218c-1.316407 0-2.386719-1.070312-2.386719-2.386719v-53.597656h129.96875v53.601563c0 1.3125-1.070313 2.382812-2.382813 2.382812zm147.351563-2.386719c0 1.316407-1.070313 2.386719-2.382813 2.386719h-125.199218c-1.316407 0-2.386719-1.070312-2.386719-2.386719v-53.597656h129.96875zm-2.382813-90.441406c1.3125 0 2.382813 1.070313 2.382813 2.386719v19.453125h-129.964844v-19.453125c0-1.316406 1.066406-2.386719 2.382813-2.386719zm5.84375-181.214844c-12.710937-11.527343-32.007812-10.898437-43.9375 1.433594l-68.429687 70.742187c-9.140625 9.449219-14.175781 21.894532-14.175781 35.042969v58.996094h-4.503907c-3.667969 0-7.074219 1.152344-9.882812 3.101563-2.808594-1.949219-6.210938-3.101563-9.882813-3.101563h-4.503906v-58.996094c0-13.148437-5.035156-25.59375-14.175781-35.042969l-58.90625-60.894531c1.003906.210938 2.046875.324219 3.113281.324219h62.644531c4.144531 0 7.5-3.355469 7.5-7.5 0-4.140625-3.355469-7.5-7.5-7.5l-62.710937-.066406v-18.414063c0-13.597656 8.035156-26.230469 20.28125-32.007812 1.628906-.769531.910156-.457031 17.101562-6.734375 3.941406 4.34375 8.359375 9.175781 13.191406 14.429687 7.601563 8.269531 18.402344 13.011719 29.636719 13.011719s22.035157-4.742188 29.640625-13.007812c4.929688-5.363282 9.441406-10.300782 13.472656-14.742188 15.101563 5.847656 16.261719 6.160156 19.457032 8.011719 10.902344 6.363281 17.644531 18.171875 17.644531 30.613281l-.066406 18.90625h-62.644531c-4.144532 0-7.5 3.359375-7.5 7.5 0 4.144531 3.355468 7.5 7.5 7.5h62.644531c8.308593 0 15.066406-6.757812 15.066406-15.066406 0-20.839844.011719-19.007813-.027344-20.34375h50.828125c1.367188 0 2.683594-.203125 3.933594-.574219 11.179688 31.496094 10.53125 29.453125 10.652344 30.425781l-6.625 7.613282c-1.652344-5.105469-4.621094-9.835938-8.835938-13.660157zm25.105469-83.597656c-.375 1.027344-1.339844 4.816406-1.339844 8.773437v59.007813l-17.605469-49.617187c-4.140624-11.667969 7.523438-22.78125 18.945313-18.164063zm-34.414063 8.726563c-.761718 4.714843-.316406 9.804687 1.332032 14.453124l7.667968 21.613282h-52.394531c-3.183593-9.226563-8.945312-17.226563-16.519531-23.15625 10.632812.578125 20.894531-3.703125 27.949219-11.378906 4.015625-4.363282 7.679687-8.375 10.953125-11.976563 12.15625 4.710937 15.921875 5.640625 21.011718 10.445313zm-40.585937-48.402344c-14.09375 9.722656-34.28125 5.601562-43.25-8.769532.011719-.660156.007813 1.070313.007813-24.277343 16.320312-.515625 33.335937-5.621094 47.632812-14.25 4.417969 4.730469 7.046875 7.496093 8.554688 9.179687v13.554688c-.003907 9.839844-4.820313 18.945312-12.945313 24.5625zm-46.5625-62.648438c3.628906-12.511718 15.183594-21.992187 29.144531-22.03125 14.835938.039063 26.625 10.515625 29.617188 23.863282-3.488282-3-8.804688-3.667969-13.222656-.796876-12.085938 7.875-27.171876 13.019532-42.351563 13.554688-.367187-5.125-1.515625-10.113281-3.1875-14.589844zm-11.894531 14.382813c-14.308594-15.421875-16.234375 3.578125-52.441406 10.679687-6.976563 1.371094-14.203126 1.992188-21.34375 1.695313v-8.382813c0-4.828125.972656-9.925781 2.996093-14.671875 14.941407-35.023437 66.746094-27.625 70.789063 10.679688zm-114.222656-36.414063c13.285156.117188 25.050781 9.257813 28.753906 22.035156 0 .007813-.402344 1.117188-.410156 1.140626-12.480469-8.679688-19.996094 14.488281-59.09375 13.492187v-6.066406c0-16.3125 13-30.6875 30.75-30.601563zm-30.75 51.671875c18.128906.339844 36.710937-4.949219 52.167968-14.289062 1.527344 1.636719 2.675782 2.859375 4.015625 4.289062 0 35.703125-.003906 33.5625.007813 34.226563-5.527344 8.84375-15.21875 14.042968-25.289063 14.042968-18.363281 0-30.902343-13.730468-30.902343-29.820312zm0 0"/></svg>