<svg id="Capa_1" enable-background="new 0 0 511.999 511.999" height="512" viewBox="0 0 511.999 511.999" width="512" xmlns="http://www.w3.org/2000/svg"><g><path d="m92.546 378.946c2.456 1.99 5.24 4.439 8.14 7.151l-6.636 6.636c-2.929 2.93-2.929 7.678 0 10.607 1.464 1.464 3.384 2.196 5.303 2.196s3.839-.732 5.303-2.196l6.636-6.636c2.713 2.9 5.162 5.684 7.152 8.139 1.482 1.829 3.647 2.778 5.831 2.778 1.659 0 3.329-.548 4.718-1.673 3.218-2.608 3.712-7.331 1.104-10.549-2.286-2.822-5.101-6.013-8.195-9.306l9.076-9.076c2.712 2.9 5.161 5.684 7.15 8.14 1.482 1.829 3.648 2.778 5.832 2.778 1.659 0 3.328-.547 4.717-1.673 3.219-2.607 3.714-7.33 1.106-10.549-2.287-2.823-5.102-6.014-8.195-9.307l9.076-9.076c2.713 2.901 5.162 5.685 7.15 8.14 1.482 1.829 3.648 2.778 5.832 2.778 1.659 0 3.328-.547 4.717-1.673 3.219-2.607 3.714-7.33 1.106-10.549-2.286-2.821-5.101-6.012-8.195-9.307l6.196-6.196c2.929-2.93 2.929-7.678 0-10.607-2.929-2.928-7.678-2.928-10.606 0l-6.197 6.197c-3.293-3.093-6.484-5.907-9.307-8.195-3.219-2.609-7.942-2.113-10.549 1.105-2.608 3.219-2.113 7.941 1.105 10.549 2.456 1.991 5.241 4.439 8.14 7.151l-9.076 9.076c-3.295-3.095-6.487-5.911-9.308-8.196-3.219-2.609-7.941-2.113-10.549 1.105-2.607 3.219-2.112 7.941 1.106 10.549 2.454 1.989 5.239 4.438 8.14 7.151l-9.076 9.076c-3.293-3.093-6.484-5.908-9.307-8.195-3.219-2.609-7.94-2.113-10.549 1.105-2.605 3.222-2.11 7.944 1.109 10.552z"/><path d="m509.434 458.248-68.542-118.714c-1.506-2.604-3.708-4.561-6.237-5.775-8.879-30.746-9.981-63.336-3.16-94.606 4.969-12.136 8.264-25.36 9.664-39.359.412-4.121-2.595-7.797-6.716-8.209-4.133-.409-7.797 2.595-8.209 6.717-3.661 36.603-21.646 67.136-49.475 84.212-6.355-5.485-13.28-10.323-20.671-14.424-.164-.546-.386-1.083-.683-1.598l-14.753-25.553 13.689-7.903 14.753 25.553c1.389 2.406 3.91 3.751 6.502 3.751 1.272 0 2.562-.324 3.743-1.006 3.587-2.071 4.816-6.658 2.745-10.245l-14.753-25.552 13.689-7.903 9.51 16.472c1.389 2.406 3.91 3.751 6.502 3.751 1.272 0 2.562-.324 3.743-1.006 3.587-2.071 4.816-6.658 2.745-10.245l-9.51-16.472 4.312-2.49c3.587-2.071 4.816-6.658 2.745-10.245-2.071-3.588-6.658-4.814-10.245-2.745l-4.312 2.49-7.903-13.689 13.689-7.903 1.4 2.425c1.389 2.406 3.91 3.751 6.502 3.751 1.272 0 2.562-.324 3.743-1.006 3.587-2.071 4.816-6.658 2.745-10.245l-1.4-2.424 3.693-2.132c3.587-2.071 4.816-6.658 2.745-10.245-2.072-3.588-6.659-4.815-10.245-2.745l-3.693 2.132-7.903-13.689 9.579-5.53c3.587-2.071 4.816-6.658 2.745-10.245-2.071-3.588-6.658-4.814-10.245-2.745l-9.579 5.53-7.903-13.689 9.579-5.531c3.587-2.071 4.816-6.658 2.745-10.245-2.071-3.588-6.659-4.815-10.245-2.745l-9.579 5.53-7.903-13.689 3.693-2.132c3.587-2.071 4.816-6.658 2.745-10.245-2.072-3.588-6.659-4.814-10.245-2.745l-3.693 2.132-2.322-4.022c-2.071-3.588-6.658-4.815-10.245-2.745-3.587 2.071-4.816 6.658-2.745 10.245l2.322 4.022-13.689 7.904-7.903-13.689 4.312-2.49c3.587-2.071 4.816-6.658 2.745-10.245-2.071-3.588-6.658-4.814-10.245-2.745l-4.312 2.49-9.51-16.472c-2.071-3.588-6.658-4.815-10.245-2.745-3.587 2.071-4.816 6.658-2.745 10.245l9.51 16.472-13.688 7.903-15.677-27.153c-2.071-3.588-6.658-4.815-10.245-2.745-3.587 2.071-4.816 6.658-2.745 10.245l15.675 27.15-13.689 7.903-15.675-27.15c-2.071-3.588-6.658-4.815-10.245-2.745-3.587 2.071-4.816 6.658-2.745 10.245l15.675 27.15-13.689 7.903-9.51-16.472c-2.071-3.588-6.658-4.814-10.245-2.745-3.587 2.071-4.816 6.658-2.745 10.245l9.51 16.472-4.312 2.49c-3.587 2.071-4.816 6.658-2.745 10.245 1.389 2.406 3.91 3.751 6.502 3.751 1.272 0 2.562-.324 3.743-1.006l4.312-2.49 7.904 13.689-13.689 7.903-2.322-4.022c-2.072-3.588-6.659-4.815-10.245-2.745-3.587 2.071-4.816 6.658-2.745 10.245l2.322 4.022-3.693 2.132c-3.587 2.071-4.816 6.658-2.745 10.245 1.389 2.406 3.91 3.751 6.502 3.751 1.272 0 2.562-.324 3.743-1.006l3.693-2.132 7.903 13.689-9.579 5.53c-3.587 2.071-4.816 6.658-2.745 10.245 1.389 2.406 3.91 3.751 6.502 3.751 1.272 0 2.562-.324 3.743-1.006l9.579-5.53 7.903 13.688-9.579 5.53c-3.587 2.071-4.816 6.658-2.745 10.245 1.389 2.406 3.91 3.751 6.502 3.751 1.272 0 2.562-.324 3.743-1.006l9.579-5.53 7.903 13.689-3.693 2.132c-3.587 2.071-4.816 6.658-2.745 10.245 1.389 2.406 3.91 3.751 6.502 3.751 1.272 0 2.562-.324 3.743-1.006l3.693-2.132 3.085 5.343c-6.812 2.036-13.377 4.65-19.637 7.787-14.938-12.232-27.585-27.211-37.61-44.575-38.383-66.481-24.661-146.519 30.589-178.417 55.251-31.899 131.426-3.764 169.808 62.718 11.154 19.319 18.121 39.911 20.706 61.205.5 4.111 4.24 7.035 8.349 6.541 4.112-.499 7.041-4.237 6.542-8.35-2.83-23.311-10.436-45.817-22.606-66.896-42.519-73.64-127.885-104.238-190.3-68.205-62.412 36.033-78.597 125.263-36.079 198.907 1.421 2.46 2.891 4.877 4.408 7.249-32.883.327-65.085 8.768-93.88 24.706-3.624 2.005-4.936 6.569-2.93 10.193 1.369 2.474 3.929 3.869 6.569 3.869 1.229 0 2.474-.302 3.625-.939 6.11-3.382 12.388-6.391 18.8-9.035 1.49.892 3.023 1.839 4.597 2.849 16.443 10.539 35.283 26.126 53.047 43.891 1.382 1.382 2.766 2.793 4.146 4.213-9.851 17.619-15.477 37.907-15.477 59.487 0 20.734 5.193 40.275 14.337 57.403-16.299 15.364-35.257 27.591-55.807 36.078-1.53-.916-3.065-1.858-4.6-2.843-16.438-10.534-35.277-26.121-53.047-43.89-17.764-17.766-33.351-36.604-43.891-53.05-1.009-1.573-1.954-3.103-2.844-4.589 9.17-22.208 22.704-42.563 39.848-59.706 4.48-4.48 9.295-8.814 14.311-12.882 3.217-2.609 3.709-7.333 1.1-10.55-2.608-3.216-7.331-3.709-10.549-1.101-5.417 4.394-10.621 9.079-15.468 13.925-24.301 24.302-41.927 54.562-50.97 87.511-8.768 31.944-9.395 65.885-1.813 98.152 1.453 6.182 6.385 11.114 12.567 12.566 14.93 3.509 30.217 5.259 45.5 5.259 17.747 0 35.488-2.36 52.651-7.071 30.086-8.258 57.915-23.691 81.028-44.809 22.163 31.369 58.7 51.893 99.943 51.893 20.63 0 41.034-5.241 59.003-15.158 3.626-2.001 4.944-6.563 2.943-10.19-2-3.626-6.563-4.944-10.19-2.942-14.952 8.251-31.832 12.803-48.986 13.247-5.53-5.235-22.551-23.901-30.9-61.553 4.734.396 9.521.597 14.347.597 10.155 0 20.128-.899 29.813-2.621 8.957 10.323 21.879 13.879 35.402 13.878 15.826 0 32.447-4.844 44.453-9.33-4.909 9.737-11.334 18.766-19.161 26.772-2.896 2.963-2.841 7.711.121 10.606 2.961 2.895 7.71 2.84 10.606-.12 13.811-14.129 23.801-31.044 29.455-49.443l44.289 76.715c3.533 6.116 9.961 9.539 16.562 9.539 3.236 0 6.515-.823 9.512-2.555l18.217-10.518c4.419-2.548 7.582-6.665 8.903-11.591 1.322-4.926.646-10.071-1.904-14.486zm-488.177 19.281c-.687-.162-1.234-.71-1.396-1.396-3.8-16.172-5.351-32.797-4.701-49.336 8.109 9.706 17.068 19.506 26.496 28.935 9.428 9.428 19.229 18.385 28.939 26.498-16.54.649-33.166-.902-49.338-4.701zm70.716 2.607c-13.073-10.009-26.742-22.043-39.71-35.011-12.97-12.972-25.005-26.639-35.01-39.708 1.059-6.744 2.473-13.436 4.283-20.034.299-1.09.631-2.169.95-3.252 10.905 16.003 25.775 33.661 42.442 50.329 16.673 16.673 34.333 31.544 50.329 42.443-1.083.319-2.161.651-3.251.95-6.596 1.81-13.289 3.224-20.033 4.283zm327.861-88.637 25.305-14.609 7.519 13.023-25.305 14.61zm-99.866 10.384c-2.028-4.931-2.401-10.29-1.137-16.252 3.115-14.694 16.146-32.595 37.683-51.767 10.74-9.561 21.171-17.246 27.359-21.585 6.245 8.616 11.247 18.188 14.729 28.457-12.017 29.407-41.938 51.957-78.634 61.147zm108.21-54.368 9.46 16.385-18.401 10.623c-.033-7.081-.668-14.022-1.862-20.773zm-15.895-76.208c-.923 21.491 1.474 43.076 7.187 63.916l-5.799 3.347c-5.326-16.979-14.263-32.372-25.906-45.283 9.228-6.096 17.445-13.495 24.518-21.98zm-78.899-12.956c-5.258-1.644-10.67-2.935-16.204-3.86l10.482-6.052zm-142.277 134.375c5.22 3.849 10.776 7.343 16.616 10.463-1.696 5.999-4.598 11.282-8.678 15.804-3.716-8.257-6.411-17.067-7.938-26.267zm-1.41-20.652c.279-10 1.93-19.663 4.776-28.805 7.033 9.383 15.272 24.523 15.257 43.861-7.303-4.352-14.029-9.388-20.033-15.056zm11.146-44.638c15.265-30.651 44.762-53.022 79.789-58.389-4.348 6.404-9.448 14.954-14.276 25.603-10.337 22.799-21.308 59.939-15.697 108.326-9.178-1.977-17.99-4.784-26.274-8.369 2.98-32.792-14.036-56.629-23.542-67.171zm122.691-147.758 7.903 13.689-13.689 7.903-7.903-13.689zm-21.189-5.087-7.903-13.689 13.689-7.903 7.903 13.689zm34.18-2.412 13.689-7.903 7.903 13.689-13.689 7.903zm-7.5-12.991-7.903-13.689 13.689-7.903 7.903 13.689zm-15.403-26.679-7.903-13.689 13.688-7.903 7.903 13.689zm-12.991 7.5-13.689 7.903-7.903-13.689 13.689-7.903zm-26.679 15.403-13.689 7.903-7.903-13.689 13.689-7.903zm7.5 12.991 7.903 13.689-13.689 7.903-7.903-13.689zm15.403 26.679 7.903 13.689-13.689 7.903-7.903-13.689zm15.403 26.679 7.903 13.689-13.689 7.903-7.903-13.689zm20.894 6.189-7.903-13.689 13.689-7.903 7.903 13.689zm40.368-23.307-13.689 7.903-7.903-13.689 13.689-7.903zm11.276-42.082-13.689 7.903-7.903-13.689 13.689-7.903zm-15.403-26.679-13.689 7.903-7.903-13.689 13.689-7.903zm-23.307-40.368 7.903 13.689-13.689 7.903-7.903-13.689zm-42.083-11.276 7.903 13.689-13.688 7.903-7.903-13.689zm-26.678 15.403 7.903 13.689-13.689 7.903-7.903-13.689zm-40.368 23.306 13.689-7.903 7.903 13.689-13.689 7.903zm-11.276 42.083 13.689-7.903 7.903 13.689-13.689 7.903zm15.403 26.679 13.689-7.903 7.903 13.688-13.689 7.903zm15.403 26.679 13.689-7.903 7.903 13.689-13.689 7.903zm15.403 26.679 13.689-7.903 9.049 15.674c-5.894.11-11.687.64-17.351 1.56zm-43.274 28.659c-2.489 1.683-4.911 3.457-7.266 5.313-.499-.503-.986-1.01-1.489-1.513-9.438-9.438-19.248-18.399-28.963-26.515 5.357-.211 10.737-.189 16.128.069 6.549 8.23 13.757 15.797 21.59 22.646zm-32.026 27.071c-16.672-16.672-34.335-31.544-50.339-42.448 7.631-2.251 15.404-4.004 23.274-5.244 13.076 10.009 26.753 22.049 39.731 35.029.302.302.593.606.893.908-4.219 4.254-8.126 8.817-11.688 13.649-.624-.633-1.248-1.27-1.871-1.894zm81.972 180.022c-30.213-5.24-56.134-23.154-72.063-48.053 7.018-6.421 12.02-14.162 14.951-23.137 9.982 4.063 20.592 7.118 31.609 9.1 5.748 29.982 16.626 49.98 25.503 62.09zm-12.468-75.345c-.062-.456-.134-.895-.194-1.356-5.956-46.059 4.233-81.237 13.83-102.638 7.873-17.557 16.649-28.998 20.539-33.616 28.987.886 55.115 13.323 73.93 32.855-17.892 12.62-62.699 47.21-70.039 81.785-1.678 7.907-1.363 15.371.909 22.307-7.143 1.033-14.463 1.589-21.902 1.589-5.767.002-11.468-.314-17.073-.926zm65.401 8.894c11.793-3.583 22.976-8.503 33.295-14.699 16.15-9.697 29.421-22.281 38.786-36.51.437 3.923.669 7.907.669 11.945 0 4.819-.325 9.591-.949 14.294-.008.049-.012.098-.02.147-.653 4.869-1.633 9.663-2.934 14.355-10.545 4.842-48.128 20.633-68.847 10.468zm165.356 54.479c-.283 1.056-.961 1.938-1.912 2.486l-18.222 10.521c-.945.545-2.047.689-3.1.407-1.056-.283-1.938-.959-2.483-1.903l-36.281-62.844 25.305-14.611 36.286 62.847c.545.944.689 2.043.407 3.097z"/></g></svg>