<svg id="Capa_1" enable-background="new 0 0 511.995 511.995" height="512" viewBox="0 0 511.995 511.995" width="512" xmlns="http://www.w3.org/2000/svg"><g><path d="m255.161 213.427c-18.055 0-32.744 14.689-32.744 32.744s14.689 32.744 32.744 32.744 32.744-14.689 32.744-32.744-14.689-32.744-32.744-32.744zm0 50.489c-9.784 0-17.744-7.96-17.744-17.744s7.96-17.744 17.744-17.744 17.744 7.96 17.744 17.744-7.96 17.744-17.744 17.744z"/><path d="m339.099 223.27c4.143 0 7.5-3.358 7.5-7.5s-3.357-7.5-7.5-7.5h-19.542v-4.898c0-11.908-9.688-21.596-21.596-21.596h-4.061v-18.706c0-4.142-3.357-7.5-7.5-7.5s-7.5 3.358-7.5 7.5v18.706h-15.402v-18.706c0-4.142-3.357-7.5-7.5-7.5s-7.5 3.358-7.5 7.5v18.706h-15.402v-18.706c0-4.142-3.357-7.5-7.5-7.5s-7.5 3.358-7.5 7.5v18.706h-5.734c-11.908 0-21.596 9.688-21.596 21.596v4.898h-17.868c-4.143 0-7.5 3.358-7.5 7.5s3.357 7.5 7.5 7.5h17.868v15.402h-17.868c-4.143 0-7.5 3.358-7.5 7.5s3.357 7.5 7.5 7.5h17.868v15.402h-17.868c-4.143 0-7.5 3.358-7.5 7.5s3.357 7.5 7.5 7.5h17.868v4.898c0 11.908 9.688 21.596 21.596 21.596h5.734v18.705c0 4.142 3.357 7.5 7.5 7.5s7.5-3.358 7.5-7.5v-18.705h15.402v18.705c0 4.142 3.357 7.5 7.5 7.5s7.5-3.358 7.5-7.5v-18.705h15.402v18.705c0 4.142 3.357 7.5 7.5 7.5s7.5-3.358 7.5-7.5v-18.705h4.061c11.908 0 21.596-9.688 21.596-21.596v-4.898h19.542c4.143 0 7.5-3.358 7.5-7.5s-3.357-7.5-7.5-7.5h-19.542v-15.402h19.542c4.143 0 7.5-3.358 7.5-7.5s-3.357-7.5-7.5-7.5h-19.542v-15.402zm-34.542 65.701c0 3.637-2.959 6.596-6.596 6.596h-85.6c-3.637 0-6.596-2.959-6.596-6.596v-85.6c0-3.637 2.959-6.596 6.596-6.596h85.6c3.637 0 6.596 2.959 6.596 6.596z"/><path d="m483.921 80.317c-15.48 0-28.074 12.594-28.074 28.075 0 5.168 1.41 10.011 3.856 14.174l-29.585 33.004h-31.338c-4.143 0-7.5 3.358-7.5 7.5s3.357 7.5 7.5 7.5h34.687c2.132 0 4.162-.907 5.585-2.494l31.418-35.049c3.997 2.191 8.581 3.439 13.451 3.439 15.48 0 28.074-12.594 28.074-28.075s-12.594-28.074-28.074-28.074zm0 41.149c-7.209 0-13.074-5.865-13.074-13.075s5.865-13.075 13.074-13.075 13.074 5.865 13.074 13.075-5.865 13.075-13.074 13.075z"/><path d="m426.854 92.26v-37.136c11.849-3.29 20.574-14.167 20.574-27.049.001-15.481-12.593-28.075-28.074-28.075s-28.074 12.594-28.074 28.075c0 12.883 8.725 23.759 20.574 27.049v29.636h-55.235c-4.143 0-7.5 3.358-7.5 7.5v23.762c0 4.142 3.357 7.5 7.5 7.5s7.5-3.358 7.5-7.5v-16.262h55.235c4.143 0 7.5-3.358 7.5-7.5zm-20.574-64.185c0-7.209 5.865-13.075 13.074-13.075s13.074 5.865 13.074 13.075-5.865 13.075-13.074 13.075-13.074-5.866-13.074-13.075z"/><path d="m28.075 136.466c4.871 0 9.454-1.249 13.451-3.439l31.418 35.049c1.423 1.587 3.453 2.494 5.585 2.494h34.687c4.143 0 7.5-3.358 7.5-7.5s-3.357-7.5-7.5-7.5h-31.337l-29.585-33.004c2.446-4.164 3.856-9.006 3.856-14.174 0-15.48-12.594-28.075-28.074-28.075s-28.076 12.594-28.076 28.075 12.595 28.074 28.075 28.074zm0-41.149c7.209 0 13.074 5.865 13.074 13.075s-5.865 13.075-13.074 13.075c-7.21 0-13.075-5.865-13.075-13.075s5.865-13.075 13.075-13.075z"/><path d="m155.377 123.522c4.143 0 7.5-3.358 7.5-7.5v-23.762c0-4.142-3.357-7.5-7.5-7.5h-55.235v-29.636c11.849-3.29 20.574-14.167 20.574-27.049 0-15.481-12.594-28.075-28.074-28.075s-28.075 12.594-28.075 28.075c0 12.883 8.725 23.759 20.574 27.049v37.136c0 4.142 3.357 7.5 7.5 7.5h55.235v16.262c.001 4.142 3.358 7.5 7.501 7.5zm-75.81-95.447c0-7.21 5.866-13.075 13.075-13.075s13.074 5.865 13.074 13.075-5.865 13.075-13.074 13.075-13.075-5.866-13.075-13.075z"/><path d="m208.619 92.772c4.143 0 7.5-3.358 7.5-7.5v-30.148c11.849-3.29 20.575-14.167 20.575-27.049 0-15.481-12.594-28.075-28.075-28.075s-28.074 12.594-28.074 28.075c0 12.883 8.725 23.759 20.574 27.049v30.148c0 4.142 3.358 7.5 7.5 7.5zm-13.074-64.697c0-7.209 5.865-13.075 13.074-13.075 7.21 0 13.075 5.865 13.075 13.075s-5.865 13.075-13.075 13.075c-7.209-.001-13.074-5.866-13.074-13.075z"/><path d="m303.377 92.772c4.143 0 7.5-3.358 7.5-7.5v-30.148c11.849-3.29 20.574-14.167 20.574-27.049 0-15.481-12.594-28.075-28.074-28.075s-28.075 12.594-28.075 28.075c0 12.883 8.726 23.76 20.575 27.049v30.148c0 4.142 3.357 7.5 7.5 7.5zm-13.075-64.697c0-7.209 5.865-13.075 13.075-13.075 7.209 0 13.074 5.865 13.074 13.075s-5.865 13.075-13.074 13.075c-7.21-.001-13.075-5.866-13.075-13.075z"/><path d="m28.075 311.431c15.48 0 28.074-12.594 28.074-28.075 0-5.168-1.41-10.01-3.856-14.174l29.585-33.005h19.05c4.143 0 7.5-3.358 7.5-7.5s-3.357-7.5-7.5-7.5h-22.399c-2.132 0-4.162.907-5.585 2.494l-31.418 35.05c-3.997-2.191-8.581-3.439-13.451-3.439-15.48 0-28.075 12.594-28.075 28.074s12.595 28.075 28.075 28.075zm0-41.149c7.209 0 13.074 5.865 13.074 13.074s-5.865 13.075-13.074 13.075c-7.21 0-13.075-5.865-13.075-13.075 0-7.209 5.865-13.074 13.075-13.074z"/><path d="m113.217 291.988h-20.575c-4.143 0-7.5 3.358-7.5 7.5v63.418c-11.849 3.29-20.574 14.167-20.574 27.049 0 15.48 12.594 28.075 28.074 28.075s28.074-12.594 28.074-28.075c0-12.883-8.725-23.759-20.574-27.049v-55.918h13.075c4.143 0 7.5-3.358 7.5-7.5s-3.358-7.5-7.5-7.5zm-7.501 97.968c0 7.209-5.865 13.075-13.074 13.075s-13.074-5.865-13.074-13.075 5.865-13.075 13.074-13.075 13.074 5.866 13.074 13.075z"/><path d="m483.921 255.282c-4.871 0-9.454 1.249-13.451 3.439l-31.418-35.05c-1.423-1.587-3.453-2.494-5.585-2.494h-22.399c-4.143 0-7.5 3.358-7.5 7.5s3.357 7.5 7.5 7.5h19.05l29.585 33.005c-2.446 4.163-3.856 9.006-3.856 14.174 0 15.48 12.594 28.075 28.074 28.075s28.074-12.594 28.074-28.075c0-15.48-12.594-28.074-28.074-28.074zm0 41.149c-7.209 0-13.074-5.865-13.074-13.075 0-7.209 5.865-13.074 13.074-13.074s13.074 5.865 13.074 13.074-5.865 13.075-13.074 13.075z"/><path d="m419.354 291.988h-20.575c-4.143 0-7.5 3.358-7.5 7.5s3.357 7.5 7.5 7.5h13.075v55.918c-11.849 3.29-20.574 14.167-20.574 27.049 0 15.48 12.594 28.075 28.074 28.075s28.074-12.594 28.074-28.075c0-12.883-8.725-23.759-20.574-27.049v-63.418c0-4.142-3.357-7.5-7.5-7.5zm13.075 97.968c0 7.209-5.865 13.075-13.074 13.075s-13.074-5.865-13.074-13.075 5.865-13.075 13.074-13.075 13.074 5.866 13.074 13.075z"/><path d="m383.468 236.172c.187 0 .375-.007.563-.021 4.131-.307 7.23-3.905 6.924-8.036-4.738-63.725-53.707-116.014-116.336-125.481-4.098-.623-7.918 2.199-8.537 6.294s2.199 7.917 6.295 8.537c55.854 8.444 99.433 55.446 103.619 111.763.293 3.941 3.582 6.944 7.472 6.944z"/><path d="m168.646 342.488c6.755 5.786 10.629 14.37 10.629 23.551v19.244c0 14.009 8.784 25.997 21.13 30.768v29.602c0 9.895 5.988 18.413 14.528 22.134v7.317c0 20.342 16.55 36.892 36.893 36.892h8.344c20.343 0 36.893-16.55 36.893-36.892v-7.317c8.541-3.72 14.528-12.239 14.528-22.134v-29.603c12.346-4.771 21.13-16.759 21.13-30.768v-19.244c0-9.181 3.874-17.765 10.629-23.551 23.302-19.959 39.408-47.432 45.353-77.356.807-4.062-1.832-8.01-5.896-8.817-4.061-.807-8.011 1.833-8.817 5.896-5.291 26.64-19.638 51.104-40.397 68.885-10.086 8.639-15.871 21.375-15.871 34.943v19.244c0 9.983-8.178 17.978-17.978 17.978h-87.49c-9.786 0-17.978-7.98-17.978-17.978v-19.244c0-13.568-5.785-26.304-15.871-34.943-27.052-23.171-42.631-56.862-42.741-92.434-.186-60.107 44.506-112.21 103.956-121.197 4.096-.619 6.914-4.441 6.295-8.537-.618-4.096-4.444-6.917-8.537-6.294-66.746 10.089-116.923 68.588-116.714 136.074.123 39.941 17.612 77.768 47.982 103.781zm113.416 132.615c0 12.071-9.821 21.892-21.893 21.892h-8.344c-12.071 0-21.893-9.821-21.893-21.892v-5.318h52.129v5.318zm-66.657-56.843h81.186v27.392c0 5.12-4.206 9.133-9.133 9.133h-62.92c-4.925 0-9.133-4.012-9.133-9.133z"/></g></svg>