<?xml version="1.0" encoding="UTF-8"?>
<svg id="Layer_1" data-name="Layer 1" xmlns="http://www.w3.org/2000/svg" viewBox="0 0 199.35 119.7">
  <defs>
    <style>
      .cls-1 {
        fill: #dae2e6;
      }
    </style>
  </defs>
  <path class="cls-1" d="m119.38,117.95c-15.29-1.94-24.93-10.56-31.81-23.07-2-3.64-4.6-6.94-6.52-10.61-1.08-2.06-1.76-4.54-1.88-6.87-.52-9.45-.36-18.95-1.2-28.36-.86-9.59-6.91-15.37-18.12-16.71-8.98-1.07-17.07,3.97-19.42,13.01-1.16,4.47-.69,9.47-.37,14.19.31,4.57-1.52,5.56-5.79,5.66-11.32.25-22.63,1.06-34.27,1.66V3.77h39.75v12.18C51.16,4.45,63.75-1.11,78.93.45c14.66,1.51,27.22,6.81,35.01,19.99,5.74-4.78,10.77-9.97,16.71-13.72,14.99-9.48,30.67-8.06,46.21-1.18,12.89,5.71,20.4,15.52,20.77,29.87.73,27.95,1.16,55.91,1.72,84.28h-40.84c0-1.72,0-3.58,0-5.43,0-19.04.12-38.09-.09-57.13-.05-4.08-1.08-8.2-2.01-12.22-2.5-10.81-14.18-13.49-21.3-12.42-10.5,1.57-15.68,8.31-15.71,19.12-.05,20.1-.02,40.2-.02,60.3,0,1.91,0,3.82,0,6.03Z"/>
</svg>